<?xml version="1.0" standalone="no"?>
<!DOCTYPE svg PUBLIC "-//W3C//DTD SVG 20010904//EN"
 "http://www.w3.org/TR/2001/REC-SVG-20010904/DTD/svg10.dtd">
<svg version="1.0" xmlns="http://www.w3.org/2000/svg"
 width="1084.000000pt" height="1084.000000pt" viewBox="0 0 1084.000000 1084.000000"
 preserveAspectRatio="xMidYMid meet">
<metadata>
Created by potrace 1.11, written by Peter Selinger 2001-2013
</metadata>
<g transform="translate(0.000000,1084.000000) scale(0.100000,-0.100000)"
fill="#000000" stroke="none">
<path d="M5270 10340 c-74 -44 -142 -83 -150 -87 -8 -3 -35 -19 -60 -33 -25
-15 -193 -113 -375 -218 -181 -104 -593 -342 -915 -527 -322 -186 -641 -370
-710 -410 -69 -39 -170 -98 -225 -130 -88 -51 -498 -288 -580 -335 -173 -99
-561 -323 -605 -350 -8 -5 -91 -53 -185 -106 -93 -54 -217 -125 -275 -159
l-105 -61 0 -2501 0 -2502 85 -49 c47 -27 252 -145 455 -262 769 -444 850
-490 865 -500 8 -6 21 -13 29 -17 8 -3 64 -35 125 -71 61 -36 125 -72 141 -82
17 -9 89 -51 160 -92 72 -42 146 -85 165 -96 100 -56 645 -371 708 -408 40
-24 75 -44 77 -44 3 0 29 -16 59 -35 30 -19 58 -35 61 -35 3 0 38 -20 78 -44
39 -23 126 -74 192 -111 66 -37 127 -74 136 -82 9 -7 19 -10 22 -6 4 3 7 1 7
-5 0 -6 6 -12 13 -14 6 -2 74 -39 150 -83 76 -44 155 -89 175 -101 20 -11 98
-56 172 -99 74 -43 207 -120 295 -171 l160 -92 40 23 c22 12 58 33 80 45 68
39 158 90 195 112 33 19 382 220 469 270 66 38 515 299 531 308 8 5 143 83
300 173 157 90 375 216 485 279 110 64 223 128 250 143 28 15 55 31 60 35 6 4
71 43 145 85 74 43 149 86 165 95 17 10 71 41 120 69 50 28 97 55 105 61 8 5
44 26 80 46 36 21 160 92 275 159 469 271 572 331 606 350 20 11 124 71 232
134 l196 113 0 2502 0 2502 -96 54 c-53 30 -112 65 -132 76 -30 18 -288 166
-406 234 -16 10 -70 41 -120 70 -49 29 -106 62 -125 72 -80 46 -122 70 -260
150 -80 47 -166 97 -193 111 -26 15 -116 67 -200 116 -83 49 -255 148 -382
221 -126 73 -243 140 -260 150 -16 9 -176 102 -355 205 -179 103 -368 212
-420 242 -52 30 -102 58 -110 63 -8 5 -80 47 -160 93 -80 46 -233 135 -340
197 -255 147 -255 147 -325 187 -33 19 -67 38 -75 43 -52 32 -153 90 -156 90
-2 0 -27 14 -56 31 -88 53 -156 89 -165 89 -4 0 -69 -36 -143 -80z"/>
</g>
</svg>
