<svg xmlns="http://www.w3.org/2000/svg" viewBox="-270.926 -272.711 841.89 595.275"><path fill="#020303" d="M455.518 49.415l-1.881-6.468-1.765-5.91s-5.578-18.184-6.307-20.578c-.904-2.966-1.801-5.92-2.649-8.797l-.14-.496 12.362-14.853-5.813-18.233-62.281.06-1.902 3.03-.743-3.026-62.704.065-1.538 3.44-.605-3.444-63.195.072-1.112 4.127-.422-4.127-63.841.06-.612 6.753-.197-6.753-64.165.068-.212 6.173-.665-6.181-63.619.07-.426 3.98-1.139-3.976-30.677.026-2.45 17.111-1.398-3.53-.675-.06-5.363-13.512-30.288.03-.614 3.281-1.595-3.279-29.99.028-.682 3.063-1.766-3.063-29.733.032-3.46 13.325-8.056.008-1.544 5.823-14.006-19.13-28.936.03-24.729 76.814 26.29 24.305h28.644l4.549-17.122 2.221 2.471h7.665l12.759 14.646 29.434-.01.581-2.77 2.083 2.775 29.662-.006.531-2.996 1.894 2.996 29.943-.005 2.313-16.054 7.725 16.054 30.343-.006.382-3.673 1.322 3.673 63.117-.006.226-5.837.695 5.839 63.623-.01.615-6.381.213 6.381 31.212-.006.977-4.484.297 4.484 30.833-.006 1.307-3.851.383 3.851h30.498l1.57-3.429.456 3.429h30.209l1.814-3.13.51 3.128 29.944-.012 17.311-24.678-.828-3.954 9.594-.006 13.544-18.762 11.659 47.395 29.393-.004L456.03 51.26l-.512-1.845zm-297.33-18.757l.319-10.488 30.048-.018.263-3.484.475 13.98-31.105.01z"/><path fill="#A9A09D" d="M-101.026-7.954l-3.998 13.945h17.743l3.726-13.771 8.11-.006 3.454-13.357 23.383-.024L-65.09 49.69l-25.208.008 7.552-30.088-9.099-.01-3.937 14.656-16.329.006 4.071-14.669-9.222.023-8.891 30.092-24.745.014 22.717-70.809 22.95-.022-3.806 12.858zM-16.364-21.024l-13.932 70.877-25.215.01 15.766-70.867zM17.736 26.867l2.089-14.651-9.133-.171-6.037 37.626-25.248.004 13.227-70.88 23.405-.024-2.05 13.124 8.012.203-1.898 13.707 9.01.128 3.845-27.182 23.421-.02-8.206 70.921-25.274.01 3.164-22.588zM118.687 35.029l-.639 14.602-60.218.017 7.497-70.925 55.824-.057-.553 12.557-32.839.03-1.035 14.47 33.239.09-.599 13.708-33.866.022-1.138 15.356zM446.187-21.653l4.008 12.592-16.303.011.104.389a325.38 325.38 0 002.185 8.415c.791 2.87 1.623 5.787 2.484 8.743a829.687 829.687 0 002.683 8.984c.923 3.026 1.859 6.076 2.791 9.122.566 1.851 1.132 3.715 1.705 5.605a612.41 612.41 0 011.745 5.716c.586 1.924 1.157 3.858 1.733 5.788.569 1.936 1.14 3.873 1.682 5.809l-25.445.008-15.995-58.553-16.314.015-3.215-12.588 56.152-.056zM387.608 5.273l3.47 14.084-34.042.018 6.305 30.174-25.399.005-13.004-71.087 56.088-.056 3.092 12.585-33.016.03 2.98 14.234zM290.014 26.637l3.136 22.937-25.373.008-7.854-71.049 56.021-.056 12.289 71.091-25.381.006-3.307-22.905-9.531-.032zm16.45-27.905l-1.426-9.024-11.092.012 1.02 8.271-8.707-.07-1.121-8.195-10.732.014 1.129 9.018 9.852-.006.456 3.318-4.954.004 1.811 13.899 5.944-.006-.448-4.727 8.811-.034.737 4.753 6.023-.004-2.112-13.835-4.912-.028-.427-3.358 10.148-.002M246.01 12.793l8.372-.006 3.705 36.793-25.345.014-2.261-29.955-9.385-.229 1.948 30.184-25.343.014-2.721-71.012 55.956-.052 2.653 26.349-8.355-.008.776 7.908zm-16.53-7.05l-1.1-14.609-9.107.002.941 14.612 9.266-.005M153.907-8.804l32.462-.028-.36-12.566-55.897.06-2.388 70.963 60.305-.017-.419-14.592-34.48.013z"/><path fill="#282729" d="M-147.592 49.719c-1.818 0-2.234 1.029-.92 2.288l17.935 17.189c1.31 1.255 3.874 2.289 5.693 2.289h15.788c1.819 0 2.289-1.09 1.051-2.422l-15.85-16.94c-1.238-1.325-3.745-2.415-5.565-2.415l-18.132.011zM-86.99 49.7c-1.82 0-2.356 1.144-1.187 2.536l14.003 16.707c1.167 1.4 3.611 2.538 5.431 2.538h16.555c1.82 0 2.419-1.193 1.334-2.655l-12.262-16.481c-1.087-1.462-3.463-2.657-5.283-2.655l-18.591.01z"/><path fill="#282729" d="M-108.807 34.26c-1.818 0-2.321 1.112-1.113 2.479l15.583 17.59c1.207 1.362 3.409 2.42 4.897 2.345 1.483-.068 1.844-1.345.798-2.835l-1.086-1.54c-1.049-1.486-1.509-4.138-1.022-5.895l.302-1.098c.49-1.749-.041-4.354-1.168-5.78l-2.118-2.674c-1.128-1.429-3.539-2.594-5.357-2.594h-9.716v.002zM-52.205 49.863c-1.822.003-2.423 1.206-1.347 2.67l11.979 16.285c1.071 1.468 3.443 2.667 5.265 2.667h16.307c1.818 0 2.515-1.259 1.544-2.801L-28.54 52.658c-.969-1.542-3.247-2.803-5.066-2.799l-18.599.004zM-17.286 49.675c-1.818 0-2.532 1.271-1.58 2.822l9.717 15.908c.951 1.553 3.209 2.823 5.031 2.823h16.045c1.822 0 2.656-1.337 1.851-2.97L6.117 52.637c-.803-1.634-2.945-2.966-4.765-2.966l-18.638.004zM26.208 49.66c-1.818 0-2.68 1.351-1.916 3.002l7.315 15.819c.767 1.653 2.878 3.002 4.698 3.002h16.564c1.819 0 2.796-1.398 2.167-3.104L49.31 52.756c-.629-1.707-2.625-3.104-4.447-3.104l-18.655.008zM61.136 49.65c-1.818 0-2.805 1.404-2.192 3.109l5.398 15.088c.61 1.72 2.601 3.118 4.42 3.118h48.997c1.822 0 3.101-1.479 2.846-3.273l-2.093-14.791c-.253-1.805-1.954-3.273-3.767-3.273l-53.609.022zM131.03 49.625c-1.818 0-3.147 1.478-2.952 3.288l1.648 15.281c.196 1.811 1.842 3.287 3.661 3.287h48.745c1.82 0 3.483-1.48 3.697-3.283l1.809-15.307c.215-1.809-1.104-3.285-2.921-3.283l-53.687.017zM201.013 49.604c-1.818 0-3.493 1.48-3.725 3.283l-1.906 15.058c-.23 1.807 1.069 3.281 2.89 3.281h16.313c1.818 0 3.655-1.448 4.073-3.217l3.622-15.198c.414-1.771-.724-3.217-2.542-3.215l-18.725.008zM236.049 49.593c-1.818 0-3.649 1.45-4.071 3.221l-3.542 14.938c-.42 1.771.721 3.22 2.544 3.22h16.309c1.823 0 3.801-1.402 4.402-3.122l5.312-15.147c.596-1.715-.395-3.119-2.216-3.117l-18.738.007zM271.081 49.577c-1.826 0-3.809 1.404-4.414 3.119l-5.442 15.417c-.605 1.713.385 3.115 2.203 3.115h16.295c1.821 0 3.94-1.351 4.714-3.002l7.314-15.659c.769-1.652-.088-3-1.904-3l-18.766.01zM306.157 49.567c-1.82.002-3.958 1.338-4.757 2.974l-7.65 15.711c-.795 1.638.044 2.975 1.86 2.975h16.817c1.82 0 4.052-1.287 4.96-2.86l9.188-15.937c.912-1.572.167-2.862-1.655-2.862h-18.763zM341.254 49.553c-1.817 0-4.084 1.273-5.028 2.827l-9.753 16.021c-.948 1.555-.235 2.827 1.581 2.827h16.559c1.82 0 4.173-1.213 5.227-2.693l11.59-16.289c1.052-1.484.431-2.695-1.396-2.695l-18.78.002zM428.87 49.527c-1.819 0-4.293 1.113-5.496 2.479l-14.555 16.482c-1.205 1.367-.701 2.48 1.12 2.48h15.781c1.824 0 4.374-1.042 5.679-2.307l17.245-16.837c1.299-1.269.877-2.307-.944-2.305l-18.83.008z"/><path fill="#020303" d="M-132.356-9.304c-.169.461 1.179.843 2.997.847l17.341.07c1.818.01 3.325-.385 3.354-.869.024-.486-1.444-.886-3.264-.886h-16.813c-1.822-.001-3.448.376-3.615.838M-133.56 26.732c.564-1.729-.458-3.144-2.275-3.144h-4.237c-1.819 0-3.304.349-3.304.771 0 .424 1.487.775 3.304.775h2.098c1.818 0 2.844 1.411 2.274 3.142l-3.854 11.734c-.566 1.733.458 3.146 2.278 3.146h12.992c1.822 0 3.309-.349 3.309-.773 0-.425-1.487-.771-3.309-.771h-10.856c-1.822 0-2.846-1.416-2.275-3.146l.308-.924c.567-1.729 2.521-3.143 4.338-3.143h10.028c1.822 0 3.311-.347 3.311-.769 0-.429-1.489-.773-3.311-.773h-9.522c-1.818 0-2.842-1.41-2.274-3.144l.977-2.981zM-64.409-6.268c.247-1.799-1.045-3.275-2.86-3.275l-5.027.006c-1.819.002-3.437.351-3.6.773-.162.416 1.198.764 3.018.764h3.845c1.82 0 3.108 1.474 2.861 3.277l-.705 5.206c-.245 1.803-1.934 3.275-3.749 3.275h-15.889c-1.819 0-3.307.349-3.307.771 0 .424 1.487.775 3.307.775h31.233c1.819 0 3.306-.351 3.306-.775 0-.422-1.487-.771-3.306-.771h-7.178c-1.818 0-3.111-1.474-2.863-3.275l.914-6.751zM-42.587 41.031c.327-1.791.117-2.49-.467-1.56-.585.924-1.336 3.149-1.672 4.941l-.492 2.624c-.335 1.785.225 4.48 1.247 5.99l.832 1.223c1.024 1.506 2.656 3.327 3.629 4.048.971.724.94.076-.072-1.436l-2.791-4.174c-1.011-1.514-1.573-4.211-1.244-6.004l1.03-5.652zM-17.727-6.796c0-.425-1.485-.745-3.302-.709l-6.52.127c-1.82.04-2.554.357-1.634.709.92.355 3.162.646 4.979.646h3.172c1.82-.001 3.305-.349 3.305-.773M-8.144 44.78c.398-1.777.198-2.444-.436-1.486-.63.962-1.389 2.783-1.687 4.048-.298 1.269-.059 3.571.532 5.115.589 1.55 1.609 3.509 2.265 4.353.658.841.73.124.156-1.605l-.84-2.521c-.574-1.729-.722-4.598-.33-6.371l.34-1.533zM-14.377 26.847c-1.82-.092-3.323.177-3.35.604-.018.425 1.453.845 3.27.938l18.487.936c1.813.09 3.776.903 4.355 1.804.579.894 1.344 1.444 1.699 1.217.358-.229.084-1.308-.617-2.389-.695-1.081-2.76-2.044-4.567-2.138l-19.277-.972zM5.193-9.257c.705.492 2.772.894 4.592.894h1.405c1.818 0 3.309-.347 3.309-.775 0-.42-1.489-.807-3.309-.847l-3.98-.085c-1.817-.045-2.725.326-2.017.813M27.265 27.313c-1.816.076-3.292.488-3.274.91.016.425 1.52.71 3.333.632l10.74-.456c1.817-.078 3.083 1.331 2.809 3.132L38.626 46.38c-.277 1.795-.07 4.693.457 6.436l.467 1.557c.529 1.74 1.575 4.041 2.338 5.115.763 1.071.955.523.434-1.219l-1.66-5.564c-.518-1.743-.722-4.642-.452-6.436l2.468-16.363c.271-1.799-.992-3.209-2.811-3.129l-12.602.536zM30.945-9.629c-.074.418 1.333 1.01 3.13 1.313l18.304 2.151c1.803.223 3.28.056 3.28-.369 0-.428-1.477-.962-3.28-1.187L34.337-9.838c-1.797-.305-3.325-.21-3.392.209M70.773 36.937a3.178 3.178 0 00-3.192-3.303h-6.546c-1.818 0-3.309.351-3.309.771 0 .425 1.491.775 3.309.775h4.944a3.18 3.18 0 013.192 3.303l-.265 7.638c-.063 1.818.255 4.745.706 6.504l1.221 4.776c.455 1.762 1.3 4.064 1.89 5.116.583 1.056.736.462.332-1.313l-1.979-8.723c-.399-1.773-.679-4.713-.618-6.53l.315-9.014zM61.589-.613c0 .424 1.489.775 3.309.775h6.254c1.817 0 4.059-.408 4.979-.9.922-.496.183-.878-1.633-.853l-9.601.155c-1.818.028-3.308.399-3.308.823M104.152 7.323c-.043-1.82-.428-3.309-.86-3.309-.418 0-.767 1.488-.767 3.309v7.548c0 1.821.403 2.435.899 1.377.494-1.064.861-3.418.818-5.239l-.09-3.686zM111.683 35.475c-.066 1.818-1.604 3.301-3.425 3.301h-5.004a3.321 3.321 0 00-3.309 3.311v4.974c0 1.821.345 3.308.776 3.308.426 0 .773-1.488.773-3.308v-3.428a3.313 3.313 0 013.311-3.303h4.953c1.818 0 3.355-1.488 3.418-3.31l.053-1.602c.062-1.82-.235-3.316-.66-3.334-.424-.017-.826 1.46-.887 3.274l.001.117zM175.013 38.917c-.354.678-.486 2.712-.293 4.521l.329 3.117c.189 1.809.14 4.764-.107 6.565l-2.178 15.761c-.247 1.799-.025 3.251.492 3.229.523-.026 1.134-1.522 1.358-3.329l1.937-15.63c.221-1.809.247-4.767.05-6.573l-.594-5.602c-.194-1.808-.64-2.736-.994-2.059M128.531 63.242c0 .425 1.487.774 3.307.774h.857c1.818 0 3.305-.347 3.305-.774 0-.422-1.487-.771-3.305-.771h-.857c-1.819 0-3.307.349-3.307.771M134.457 1.443c.851.424 2.995 1.102 4.77 1.502l12.742 2.275c1.674.721 3.176.992 3.343.602.171-.388-1.104-1.177-2.829-1.749L136.162 1.29c-1.789-.343-2.556-.272-1.705.153M134.194 15.734c.708-.498-.199-.849-2.017-.781l-.596.02c-1.824.065-3.307.468-3.307.892s1.042.771 2.313.771c1.277 0 2.897-.406 3.607-.902M206.181 2.214c.107.992 1.685 1.803 3.51 1.803h1.442c1.816 0 3.533.08 3.801.171.279.098 1.303.825 1.665.608.362-.217.096-.825-.59-1.346-.685-.522-2.813-.962-4.631-.968h-.305c-1.823-.002-3.475-1.486-3.678-3.289l-2.028-18.233c-.207-1.813-.719-3.251-1.137-3.201-.419.048-.605 1.566-.4 3.372l1.609 14.455c.203 1.807-1.132 3.285-2.944 3.285h-5.249c-1.818 0-3.305.347-3.305.767 0 .424 1.486.771 3.305.771h5.42c1.821-.002 3.398.812 3.515 1.805M203.967 38.495c.122 1.813-.516 4.588-1.424 6.165l-1.383 1.556c-.422 1.771-.43 3.289-.016 3.379.418.088 1.213-1.255 1.765-2.988 0 0 .212-.755.883-1.709.663-.958 1.404-1.741 1.628-1.741.227 0 .316-1.487.19-3.299l-.573-8.337c-.128-1.813 1.259-3.297 3.082-3.297h12.388c1.821 0 3.304-.348 3.304-.773 0-.422-1.486-.774-3.304-.774h-14.044c-1.816 0-3.211 1.487-3.083 3.301l.587 8.517zM229.985 32.089c0 .424 1.486.772 3.307.772h8.319c1.82 0 3.944-.349 4.725-.772.789-.427-.064-.777-1.88-.777l-11.168.004c-1.812-.001-3.303.348-3.303.773M237.129 10.282c.462.382 2.327.695 4.143.695h2.402c1.82 0 3.307-.349 3.307-.771 0-.428-1.486-.755-3.307-.727l-4.071.058c-1.825.027-2.932.362-2.474.745M194.71 64.529c-.036.422 1.427.878 3.239 1.006l18.387 1.325c1.811.131 3.318-.108 3.356-.532.03-.423-1.431-.875-3.247-1.006l-18.377-1.321c-1.812-.129-3.326.105-3.358.528M302.04 31.535c-1.819.021-3.303.384-3.301.809.002.424 1.494.757 3.311.739l22.482 2.498c1.809.175 3.414-.006 3.558-.404.149-.394-1.213-.873-3.018-1.057l-23.032-2.585zM372.13 2.985c-.398.141-.646 1.743-.56 3.561l2.054 10.359c-.778 1.644-1.107 3.144-.725 3.334.384.191 1.343-.994 2.131-2.633L373.026 6.03c-.095-1.816-.494-3.185-.896-3.045M360.197-16.324c-1.627 0-3.378-1.386-3.9-3.074-.517-1.693-1.271-2.974-1.681-2.849-.4.125-.297 1.651.235 3.389l.282.92c.532 1.741 2.303 3.161 3.942 3.161 1.634 0 3.456 1.404 4.042 3.129l.769 2.227c.59 1.723 1.404 3.018 1.797 2.879.402-.134.247-1.656-.342-3.377l-1.124-3.277c-.585-1.718-2.398-3.128-4.02-3.128M421.27 28.481c-1.816 0-3.303.347-3.303.772 0 .429 1.486.779 3.303.779h21.198c1.822 0 3.307-.351 3.307-.779 0-.426-1.488-.772-3.307-.772H421.27zM437.274-7.826c.406-.111.358-1.639-.128-3.393L435.023-19c-.471-1.757-1.203-3.101-1.618-2.988-.4.111-.35 1.639.13 3.392l2.123 7.779c.485 1.756 1.21 3.1 1.616 2.991"/><path fill="#020303" d="M-76.562-8.279h6.928c1.817 0 1.844-.291.059-.635l-2.389-.468c-1.787-.349-3.153-.028-3.047.721l-1.551.382zM-115.317 60.276c-.705-.779-2.762-1.235-4.563-1.019l-3.996.494c-1.806.22-1.806.574.002.789l6.558.773c1.809.21 2.709-.255 1.999-1.037M-49.785 68.778c-.492-.779-2.38-1.293-4.196-1.136l-8.598.728c-1.814.149-1.814.412-.004.577l10.409.942c1.811.166 2.891-.332 2.389-1.111M29.53 65.561c-.212-.708 1.098-1.243 2.92-1.191l2.143.063c1.817.048 1.878.51.128 1.018l-1.635.471c-1.744.507-3.345.344-3.556-.361M120.29 60.539c-.138-1.062-1.723-1.723-3.525-1.466l-6.079.866c-1.793.257-1.793.699-.002.982l6.591 1.035c1.799.284 3.154-.354 3.015-1.417M127.883 64.219c-.092-1.062 1.318-1.755 3.121-1.552l.19.023c1.811.207 1.949 1.02.308 1.809l-.467.224c-1.643.782-3.06.555-3.152-.504M70.471 46.505c-.214-1.558-.62-1.673-.904-.257-.283 1.416-.089 4 .434 5.741l.415 1.387c.525 1.743.851 1.681.722-.128l-.043-.611c-.135-1.815-.41-4.573-.624-6.132M100.594 47.662c-.355-.637-.594.327-.529 2.143l.027.863c.064 1.818.347 2.146.637.731.278-1.418.221-3.099-.135-3.737M39.571 47.016c-.074-1.56-.359-1.56-.639 0-.284 1.563-.044 4.248.524 5.975l.481 1.446c.574 1.726.802 1.665.502-.126l-.196-1.194c-.299-1.799-.605-4.538-.672-6.101M-9.488 48.179c-.283-.638-.752-.522-1.028.257-.284.778.01 2.223.647 3.215.636.99 1.105.879 1.031-.257-.074-1.131-.364-2.577-.65-3.215M-43.735 47.087c-.351-1.562-.987-1.389-1.411.383v.006c-.426 1.767.272 4.259 1.542 5.533 1.272 1.277 1.907 1.104 1.416-.384-.5-1.49-1.192-3.979-1.547-5.538M-105.4 44.834c-.495-.638.584-1.028 2.397-.873l5.244.456c1.814.158 1.818.473.017.708l-3.476.448c-1.802.231-3.684-.102-4.182-.739M175.447 45.913c.259-1.799.772-1.818 1.163-.041l.155.744c.383 1.779.314 4.674-.151 6.431l-.629 2.362c-.467 1.754-.889 1.706-.94-.113l-.066-2.138c-.054-1.82.114-4.78.373-6.583l.095-.662zM154.798 6.208c0 .779-1.233.574-2.737-.442l-.973-.659c-1.506-1.024-1.292-1.514.479-1.09l.008.002c1.777.43 3.223 1.408 3.223 2.189M255.353 58.604c.209-.709-1.104-1.242-2.927-1.193l-2.396.068c-1.816.054-1.868.496-.123.992l1.872.524c1.756.49 3.36.312 3.574-.391M242.472 47.664c-.498-1.063-.849-.441-.779 1.377l.013.339c.071 1.816.472 2.607.895 1.759.428-.851.371-2.413-.129-3.475M288.186 61.826c.282-.781-.973-1.297-2.781-1.151l-6.283.504c-1.815.144-1.826.484-.027.759l5.307.807c1.791.274 3.496-.141 3.784-.919M281.747 48.051c-.287-.854-.689-.91-.9-.131-.212.78-.149 2.519.127 3.866.283 1.345.69 1.404.897.127.215-1.275.158-3.012-.124-3.862M373.026 20.626c-.638-.213-.577-1.719.132-3.349.705-1.629 1.227-1.478 1.155.34l-.006.092c-.065 1.818-.643 3.133-1.281 2.917M329.766 60.021c.639-.777 2.631-1.195 4.428-.927l8.908 1.337c1.801.268 1.787.534-.027.584l-11.159.326c-1.82.058-2.782-.539-2.15-1.32M414.223 60.021c.78-1.063 2.88-1.651 4.669-1.303l8.186 1.579c1.782.345 1.759.709-.058.819l-10.907.639c-1.823.115-2.668-.668-1.89-1.734M417.577 29.122c-.354-1.203.822-1.968 2.621-1.701l7.362 1.088c1.797.268 1.805.753.015 1.082l-6.098 1.121c-1.789.327-3.541-.387-3.9-1.59M408.943-6.667c-.563-.498-1.086-2.391-1.147-4.207l-.014-.345c-.063-1.816.261-1.862.727-.106l.622 2.361c.462 1.757.378 2.795-.188 2.297M327.066 36.465l-4.654-1.864c-1.689-.675-1.591-1.09.22-.92l4.944.464M150.292 51.393c.348-.988.348-2.552 0-3.477-.35-.918-2.129-1.667-3.947-1.667h-1.891c-1.82 0-3.827.868-4.463 1.933-.639 1.063.273 2.341 2.023 2.837l4.461 1.272c1.751.497 3.467.091 3.817-.898"/><path fill="#020303" d="M147.202 48.82c-1.209-1.271-1.148-2.319.128-2.319 1.275 0 2.84.64 3.477 1.419.635.78.367 2.681-.598 4.223l-.357.571c-.969 1.538-1.463 1.819-1.111.614.362-1.209-.335-3.232-1.539-4.508M30.684-9.115c.142-.99 1.699-1.442 3.461-.998l.794.199c1.766.444 1.758 1.141-.013 1.556l-1.279.297c-1.77.414-3.106-.058-2.963-1.054M-52.617 4.917c-.357.638-2.087.809-3.859.385l-1.039-.251c-1.764-.424-1.732-.863.089-.972l2.144-.125c1.819-.109 3.021.326 2.665.963M-119.695 33.371c.288-.853-.946-1.263-2.729-.912l-2.768.538c-1.785.351-1.777.866.018 1.146l1.697.267c1.793.278 3.498-.187 3.782-1.039"/><path fill="#282729" d="M-114.545 60.539c-.564-.636-.611-2.59-.095-4.329l.71-2.414c.512-1.745.859-1.688.775.13l-.208 4.464c-.084 1.825-.614 2.783-1.182 2.149M-50.168 69.033c-.567-.354-.567-1.914 0-3.477.567-1.558 1.03-1.34 1.03.479v.335c-.001 1.818-.464 3.019-1.03 2.663M7.897 30.284c-.068-1.134.415-.68 1.082 1.018l.407 1.054c.669 1.693.635 2.383-.075 1.534-.707-.851-1.344-2.473-1.414-3.606M330.544 61.054c.634-.498.747-2.334.247-4.083l-.761-2.655c-.498-1.747-.872-1.691-.825.127l.104 4.205c.04 1.82.597 2.901 1.235 2.406M415.517 60.535c.921-.496 1.052-2.253.287-3.902l-3.41-7.383c-.761-1.657-1.111-1.548-.779.247l1.624 8.689c.331 1.791 1.358 2.847 2.278 2.349M419.119 28.995c-.355-.709-1.301.048-2.104 1.68l-3.518 7.194c-.805 1.634-.582 1.769.494.304l3.82-5.226c1.077-1.462 1.667-3.239 1.308-3.952"/><path fill="#020303" d="M363.883-6.282l.142-4.157c.06-1.821.486-1.867.946-.108l1.228 4.779"/><path fill="#595558" d="M-126.772 62.34c-1.627-.496-1.511-.787.258-.64 1.768.138 4.377.431 5.79.642 1.414.211 1.299.504-.257.64-1.558.143-4.163-.148-5.791-.642M-45.256 53.22c-1.284-1.285-1.471-1.128-.416.351l1.306 1.828c1.056 1.48 2.735 3.211 3.728 3.85.99.638.935.12-.126-1.157-1.065-1.274-2.988-3.37-4.273-4.655l-.219-.217zM-12.06 49.596c-.428 0-.194 1.213.514 2.705.708 1.486 1.055 1.486.773 0-.284-1.494-.862-2.705-1.287-2.705M35.328 66.077c-1.418-.144-1.109-.524.68-.853l1.976-.358c1.789-.325 2.503-.126 1.582.441-.913.565-2.824.91-4.238.77M68.408 52.298c-.639-.918-.871-.343-.518 1.287.355 1.627 1.283 4.121 2.063 5.536.773 1.418 1.077 1.127.664-.642l-.298-1.281c-.416-1.776-1.272-3.981-1.911-4.9M177.85 55.129c-.215-1.063-.741-.891-1.161.382-.425 1.275-.773 3.706-.773 5.411 0 1.697.473 1.677 1.05-.046l.226-.68c.57-1.723.869-4.006.658-5.067M141.382 48.037c-.358-1.084-1.18-.899-1.828.41-.646 1.311.169 3.032 1.802 3.829l.082.035c1.628.793 2.437.602 1.785-.43-.648-1.026-1.481-2.756-1.841-3.844M202.563 66.589c-1.625-.422-1.472-.771.347-.771h.598c1.817 0 4.636.462 6.271 1.029 1.625.566 1.477.927-.343.795l-.607-.042c-1.813-.132-4.633-.585-6.266-1.011M243.894 52.298c-.135-.638-.661-.056-1.159 1.287-.502 1.343-.383 1.868.259 1.159.633-.709 1.043-1.813.9-2.446M283.651 50.893c-.143-.632-.665-.056-1.159 1.291-.498 1.343-.379 1.87.259 1.157.634-.71 1.044-1.81.9-2.448M277.269 62.836c-1.789-.343-1.765-.769.044-.946l1.402-.134c1.809-.173 4.042.144 4.969.716.92.566.629 1.029-.646 1.029s-3.777-.28-5.566-.625l-.203-.04zM335.697 62.728c-1.631.14-1.631-.149 0-.644 1.626-.498 4.444-.779 6.253-.623l2.423.213c1.809.153 1.809.368-.008.47l-2.41.136c-1.813.107-4.634.309-6.258.448"/><path fill="#282729" d="M373.409 21.142c-.849.357-2.116 2.018-2.813 3.697l-.036.069c-.697 1.682-.375 1.871.721.42l1.666-2.197c1.108-1.451 1.315-2.346.462-1.989"/><path fill="#020303" d="M437.405-7.053c-.78 0-1.563-1.482-1.74-3.293l-.132-1.396c-.176-1.815.297-1.938 1.044-.281l.889 1.956c.745 1.657.721 3.014-.061 3.014M194.068.282c-.067-.918 1.363-1.622 3.18-1.56l1.106.036c1.818.062 1.931.679.253 1.375l-1.356.554c-1.681.696-3.114.513-3.183-.405M103.557 3.63c-.713-.355-1.104.831-.867 2.633l.181 1.43c.237 1.803.759 1.829 1.173.056l.053-.251c.415-1.77.168-3.511-.54-3.868M22.567 28.738c-.213-.707 1.102-1.285 2.922-1.285h7.038c1.818 0 1.846.293.063.646l-6.39 1.274c-1.783.357-3.424.074-3.633-.635M-121.174 42.897c.109-.53-1.293-.97-3.114-.97h-1.689c-1.824 0-1.865.356-.098.788l1.495.365c1.765.434 3.296.348 3.406-.183"/><path fill="#E1DCD7" d="M-146.776 48.786c-1.82.021-3.017.326-2.659.68.358.356 2.136.645 3.953.645h13.476c1.814 0 3.595-.347 3.949-.773.355-.427-.849-.755-2.667-.735l-16.052.183zM-85.742 48.786c-1.824.021-3.023.326-2.664.68.354.356 2.127.645 3.945.645h13.476c1.817 0 3.597-.347 3.953-.773.355-.427-.849-.755-2.664-.735l-16.046.183zM-51.43 48.519c-1.818.056-3.208.397-3.094.753.122.356 1.708.643 3.527.643h.232c1.82 0 3.406-.348 3.531-.772.119-.429-1.269-.723-3.088-.665l-1.108.041zM-112.653 18.584c-1.817.062-3.207.402-3.086.755.127.355 1.711.646 3.529.646h.228c1.818 0 3.403-.349 3.529-.773.121-.428-1.268-.725-3.086-.667l-1.114.039zM-87.355 18.584c-1.816.062-3.203.402-3.085.755.127.355 1.711.646 3.525.646h.231c1.819 0 3.404-.349 3.527-.773.125-.428-1.269-.725-3.089-.667l-1.109.039zM-137.958 22.626c-1.815.066-3.21.408-3.103.767.105.354 1.586.641 3.278.641 1.693 0 3.168-.349 3.274-.771.11-.424-1.287-.719-3.103-.649l-.346.012zM-107.631 32.925c-1.822.034-3.123.35-2.9.706.228.356 1.9.639 3.716.639h6.046c1.822 0 3.492-.344 3.715-.767.226-.424-1.08-.743-2.896-.713l-7.681.135zM-121.537-11.103c-1.822.032-3.123.349-2.897.701.223.352 1.896.642 3.711.642h6.054c1.821 0 3.492-.347 3.715-.771.22-.426-1.086-.749-2.903-.717l-7.68.145zM-16.287 48.519c-1.815.056-3.207.397-3.084.753.125.356 1.708.643 3.525.643h.227c1.817 0 3.408-.348 3.531-.772.122-.429-1.267-.723-3.091-.665l-1.108.041zM43.772 48.509c-1.82.065-3.217.408-3.106.766.108.356 1.585.647 3.279.647 1.699 0 3.169-.351 3.276-.779.109-.424-1.296-.715-3.103-.649l-.346.015zM-5.083 48.564c-1.818.042-3.149.357-2.952.712.194.356 1.842.639 3.66.639h4.52c1.82 0 3.465-.348 3.662-.771.193-.424-1.136-.745-2.954-.705l-5.936.125zM26.781 48.569c-1.822.035-3.127.351-2.909.707.22.356 1.887.641 3.704.641h5.697c1.822 0 3.487-.348 3.709-.772.216-.424-1.093-.747-2.911-.709l-7.29.133zM61.934 48.547c-1.818.046-3.176.375-3.021.728.161.356 1.779.639 3.596.639h2.462c1.818 0 3.438-.348 3.601-.772.162-.425-1.195-.735-3.017-.69l-3.621.095zM131.644 48.547c-1.818.046-3.176.375-3.013.728.163.356 1.783.639 3.603.639h2.452c1.816 0 3.439-.348 3.603-.772.163-.425-1.193-.735-3.011-.69l-3.634.095zM181.275 48.535c-1.816.05-3.191.385-3.047.737.144.356 1.744.643 3.569.643h1.429c1.818 0 3.424-.348 3.567-.772.148-.427-1.224-.731-3.044-.68l-2.474.072zM206.003 48.587c-1.818.025-3.06.333-2.755.688.305.356 2.044.639 3.86.639h10.802c1.816 0 3.556-.348 3.864-.772.311-.425-.929-.755-2.749-.729l-13.022.174zM236.514 48.525c-1.819.056-3.201.395-3.074.751.128.352 1.72.641 3.53.641h.518c1.821 0 3.41-.348 3.534-.772.127-.426-1.251-.725-3.078-.671l-1.43.051zM247.527 48.564c-1.828.042-3.147.357-2.952.712.195.356 1.849.639 3.665.639h4.634c1.816 0 3.47-.348 3.669-.771.191-.424-1.131-.745-2.952-.705l-6.064.125zM271.855 48.551c-1.821.044-3.167.369-3 .724.171.356 1.797.642 3.615.642h2.908c1.819 0 3.446-.348 3.612-.772.167-.424-1.18-.739-3-.695l-4.135.101zM286.341 48.535c-1.821.054-3.195.387-3.06.741.139.354 1.74.641 3.565.641h1.203c1.816 0 3.418-.348 3.552-.772.138-.426-1.237-.729-3.054-.677l-2.206.067zM306.816 48.595c-1.818.02-3.002.325-2.623.68.379.356 2.176.642 3.992.642h14.904c1.82 0 3.617-.348 3.996-.774.379-.424-.801-.757-2.615-.735l-17.654.187zM341.572 48.595c-1.821.02-3 .325-2.622.68.375.356 2.176.642 3.996.642h14.901c1.822 0 3.619-.348 4-.774.384-.424-.797-.757-2.612-.735l-17.663.187zM429.445 48.595c-1.816.02-2.996.325-2.609.68.374.356 2.171.642 3.996.642h14.885c1.822 0 3.621-.348 4-.774.38-.424-.799-.757-2.613-.735l-17.659.187zM397.19-9.954c-1.817.036-3.132.351-2.919.707.214.357 1.879.642 3.695.642h5.482c1.82 0 3.484-.347 3.697-.773.213-.424-1.104-.745-2.92-.711l-7.035.135zM369.764-9.944c-1.813.032-3.1.34-2.858.697.249.357 1.937.642 3.759.642h7.184c1.824 0 3.508-.347 3.755-.771.241-.426-1.046-.747-2.866-.721l-8.974.153zM355.855-9.97c-1.817.042-3.168.371-2.992.721.167.357 1.791.644 3.617.644h3.088c1.82 0 3.446-.347 3.621-.773.172-.426-1.171-.737-2.998-.693l-4.336.101zM360.501 18.443c-1.821.034-3.126.349-2.905.703.214.356 1.885.639 3.699.639h5.823c1.816 0 3.483-.345 3.705-.767.224-.426-1.088-.745-2.908-.713l-7.414.138zM275.719-11.894c-1.82.043-3.169.368-2.996.723.17.351 1.795.64 3.618.64h3.083c1.821 0 3.446-.347 3.618-.771.167-.424-1.18-.737-3.002-.691l-4.321.099zM295.412-11.894c-1.82.043-3.167.368-2.996.723.168.351 1.801.64 3.616.64h3.098c1.816 0 3.442-.347 3.615-.771.163-.424-1.178-.737-3.004-.691l-4.329.099zM282.803.606c-1.471.065-2.602.416-2.514.771.085.359 1.223.649 2.522.649 1.297 0 2.435-.351 2.512-.774.081-.421-1.054-.712-2.52-.646M289.816-3.447c-1.818.067-3.217.418-3.117.772.103.355 1.525.646 3.159.646 1.636 0 3.052-.349 3.155-.775.104-.428-1.303-.719-3.119-.645l-.078.002zM202.137-2.675c-1.821.066-3.224.415-3.12.771.1.355 1.522.646 3.158.646 1.635 0 3.056-.349 3.169-.773.107-.426-1.299-.719-3.111-.649l-.096.005zM224.152 17.815c-1.826.056-3.211.392-3.075.751.125.353 1.721.644 3.538.644h.565c1.822 0 3.416-.345 3.538-.769.127-.428-1.255-.727-3.074-.675l-1.492.049zM208.702 25.196c-1.816.041-3.147.356-2.95.709.197.356 1.843.644 3.668.644h4.51c1.816 0 3.468-.351 3.661-.775.195-.428-1.132-.743-2.948-.703l-5.941.125zM427.314 26.74c-1.817.042-3.142.356-2.944.713.194.352 1.851.642 3.665.642h4.506c1.822 0 3.471-.349 3.67-.775.197-.424-1.132-.738-2.942-.703l-5.955.123zM63.676 32.512c-1.818.048-3.188.383-3.044.733.149.351 1.757.64 3.574.64h1.771c1.818 0 3.431-.347 3.58-.771.149-.424-1.213-.729-3.035-.681l-2.846.079zM32.769 26.33c-1.818.05-3.185.382-3.038.734.148.351 1.752.64 3.57.64h1.775c1.822 0 3.434-.347 3.582-.768.149-.427-1.218-.733-3.037-.684l-2.852.078zM-11.27 25.748c-1.819.05-3.185.385-3.035.737.152.354 1.764.643 3.582.643h1.771c1.818 0 3.43-.349 3.578-.777.152-.425-1.218-.731-3.037-.684l-2.859.081zM-77.886 2.192c-1.818.034-3.144.345-2.943.699.203.356 1.854.651 3.675.66l4.851.018c1.818.008 3.476-.336 3.676-.761.205-.426-1.114-.749-2.933-.719l-6.326.103zM47.155-9.004c-1.807-.199-3.21-.056-3.111.315.098.375 1.654.878 3.455 1.122l1.761.237c1.803.247 3.445.12 3.646-.279.202-.4-1.107-.891-2.919-1.088l-2.832-.307zM236.707 29.997c-1.821.048-3.191.381-3.04.733.147.352 1.761.639 3.573.639h1.773c1.818 0 3.426-.347 3.577-.77.143-.424-1.219-.73-3.044-.682l-2.839.08zM292.324 24.595c-1.818.048-3.185.378-3.033.733.149.351 1.759.639 3.575.639h1.773c1.82 0 3.426-.349 3.575-.772.146-.429-1.217-.729-3.033-.682l-2.857.082zM158.674-10.5c-1.816.018-2.928.321-2.462.679.466.353 2.331.642 4.149.642h19.584c1.818 0 3.682-.345 4.147-.775.458-.424-.649-.761-2.471-.743l-22.947.197zM92.442-10.302c-1.816.016-2.918.319-2.437.671.48.356 2.363.642 4.179.642h20.422c1.818 0 3.696-.345 4.176-.773.479-.424-.623-.759-2.44-.741l-23.9.201zM88.97 17.867c-1.82.028-3.097.341-2.838.697.257.357 1.959.647 3.778.647h8.111c1.816 0 3.517-.347 3.774-.771.257-.424-1.02-.749-2.838-.721l-9.987.148zM106.73 17.865c-1.818.028-3.107.343-2.86.699.246.357 1.933.647 3.753.647h7.25c1.815 0 3.504-.345 3.751-.769.247-.429-1.043-.753-2.86-.721l-9.034.144zM144.782 44.845c-1.818.062-3.208.406-3.091.757.115.353 1.699.644 3.518.644h.056c1.816 0 3.402-.347 3.525-.772.124-.427-1.267-.722-3.087-.662l-.921.033zM139.554-.426c-1.807-.209-3.186-.067-3.06.303.127.383 1.701.891 3.503 1.14l3.323.464c1.803.243 3.466.125 3.698-.275.232-.398-1.053-.893-2.861-1.104l-4.603-.528zM305.632 30.093c-1.81-.209-3.184-.074-3.052.299.115.376 1.705.887 3.506 1.138l3.311.46c1.805.245 3.466.127 3.699-.272.233-.394-1.054-.89-2.858-1.098l-4.606-.527zM299.615.606c-1.362.065-2.416.416-2.336.771.075.359 1.125.649 2.332.649 1.211 0 2.26-.351 2.337-.774.077-.421-.969-.712-2.333-.646M378.074 18.447c-1.82.034-3.109.342-2.868.697.247.356 1.933.645 3.753.645h7.195c1.814 0 3.51-.349 3.749-.773.239-.424-1.048-.743-2.87-.719l-8.959.15zM441.796-9.966c-1.816.04-3.163.364-2.985.719.177.357 1.811.642 3.627.642h3.307c1.825 0 3.459-.345 3.63-.773.179-.424-1.163-.735-2.984-.695l-4.595.107zM155.98 48.591c-1.816.023-3.029.331-2.701.686.339.354 2.1.639 3.919.639h12.388c1.819 0 3.578-.346 3.917-.771.335-.424-.881-.753-2.695-.729l-14.828.175zM74.871 48.598c-1.82.018-2.945.318-2.507.674.441.356 2.285.643 4.107.643h18.374c1.82 0 3.67-.348 4.11-.776.441-.425-.689-.759-2.507-.739l-21.577.198zM104.999 48.575c-1.814.033-3.106.347-2.865.701.243.354 1.927.639 3.745.639h7.076c1.818 0 3.501-.348 3.748-.772.236-.424-1.055-.745-2.873-.719l-8.831.151zM-38.355 48.746c-1.818.042-3.175.368-3.003.722.167.357 1.789.643 3.613.643h2.974c1.818 0 3.443-.347 3.611-.773.171-.427-1.177-.735-2.994-.695l-4.201.103z"/></svg>