<?xml version="1.0" encoding="utf-8"?>
<!-- Generator: Adobe Illustrator 23.0.1, SVG Export Plug-In . SVG Version: 6.00 Build 0)  -->
<svg version="1.1" id="Layer_1" xmlns="http://www.w3.org/2000/svg" xmlns:xlink="http://www.w3.org/1999/xlink" x="0px" y="0px"
	 viewBox="-270.926 -272.711 841.89 595.275" enable-background="new -270.926 -272.711 841.89 595.275" xml:space="preserve">
<path fill="#020303" d="M455.518,49.415l-1.881-6.468l-1.765-5.91c0,0-5.578-18.184-6.307-20.578
	c-0.904-2.966-1.801-5.92-2.649-8.797l-0.14-0.496l12.362-14.853l-5.813-18.233l-62.281,0.06l-1.902,3.03l-0.743-3.026
	l-62.704,0.065l-1.538,3.44l-0.605-3.444l-63.195,0.072l-1.112,4.127l-0.422-4.127l-63.841,0.06l-0.612,6.753l-0.197-6.753
	l-64.165,0.068l-0.212,6.173l-0.665-6.181l-63.619,0.07l-0.426,3.98l-1.139-3.976l-30.677,0.026L26.82-8.392l-1.398-3.53
	l-0.675-0.06l-5.363-13.512l-30.288,0.03l-0.614,3.281l-1.595-3.279l-29.99,0.028l-0.682,3.063l-1.766-3.063l-29.733,0.032
	l-3.46,13.325l-8.056,0.008l-1.544,5.823l-14.006-19.13l-28.936,0.03l-24.729,76.814l26.29,24.305h28.644l4.549-17.122l2.221,2.471
	h7.665l12.759,14.646l29.434-0.01l0.581-2.77l2.083,2.775l29.662-0.006l0.531-2.996l1.894,2.996l29.943-0.005l2.313-16.054
	l7.725,16.054l30.343-0.006l0.382-3.673l1.322,3.673l63.117-0.006l0.226-5.837l0.695,5.839l63.623-0.01l0.615-6.381l0.213,6.381
	l31.212-0.006l0.977-4.484l0.297,4.484l30.833-0.006l1.307-3.851l0.383,3.851h30.498l1.57-3.429l0.456,3.429h30.209l1.814-3.13
	l0.51,3.128l29.944-0.012l17.311-24.678l-0.828-3.954l9.594-0.006l13.544-18.762l11.659,47.395l29.393-0.004l24.532-24.437
	L455.518,49.415z M158.188,30.658l0.319-10.488l30.048-0.018l0.263-3.484l0.475,13.98L158.188,30.658z"/>
<polygon fill="#A9A09D" points="-101.026,-7.954 -105.024,5.991 -87.281,5.991 -83.555,-7.78 -75.445,-7.786 -71.991,-21.143 
	-48.608,-21.167 -65.09,49.69 -90.298,49.698 -82.746,19.61 -91.845,19.6 -95.782,34.256 -112.111,34.262 -108.04,19.593 
	-117.262,19.616 -126.153,49.708 -150.898,49.722 -128.181,-21.087 -105.231,-21.109 -109.037,-8.251 "/>
<polygon fill="#A9A09D" points="-16.364,-21.024 -30.296,49.853 -55.511,49.863 -39.745,-21.004 "/>
<polygon fill="#A9A09D" points="17.736,26.867 19.825,12.216 10.692,12.045 4.655,49.671 -20.593,49.675 -7.366,-21.205 
	16.039,-21.229 13.989,-8.105 22.001,-7.902 20.103,5.805 29.113,5.933 32.958,-21.249 56.379,-21.269 48.173,49.652 22.899,49.662 
	26.063,27.074 "/>
<polygon fill="#A9A09D" points="118.687,35.029 118.048,49.631 57.83,49.648 65.327,-21.277 121.151,-21.334 120.598,-8.777 
	87.759,-8.747 86.724,5.723 119.963,5.813 119.364,19.521 85.498,19.543 84.36,34.899 "/>
<path fill="#A9A09D" d="M446.187-21.653l4.008,12.592L433.892-9.05l0.104,0.389c0.674,2.755,1.404,5.556,2.185,8.415
	c0.791,2.87,1.623,5.787,2.484,8.743c0.872,2.966,1.761,5.974,2.683,8.984c0.923,3.026,1.859,6.076,2.791,9.122
	c0.566,1.851,1.132,3.715,1.705,5.605c0.586,1.893,1.172,3.799,1.745,5.716c0.586,1.924,1.157,3.858,1.733,5.788
	c0.569,1.936,1.14,3.873,1.682,5.809l-25.445,0.008L409.564-9.024L393.25-9.009l-3.215-12.588L446.187-21.653z"/>
<polygon fill="#A9A09D" points="387.608,5.273 391.078,19.357 357.036,19.375 363.341,49.549 337.942,49.554 324.938,-21.533 
	381.026,-21.589 384.118,-9.004 351.102,-8.974 354.082,5.26 "/>
<path fill="#A9A09D" d="M290.014,26.637l3.136,22.937l-25.373,0.008l-7.854-71.049l56.021-0.056l12.289,71.091l-25.381,0.006
	l-3.307-22.905L290.014,26.637z M306.464-1.268l-1.426-9.024l-11.092,0.012l1.02,8.271l-8.707-0.07l-1.121-8.195l-10.732,0.014
	l1.129,9.018l9.852-0.006l0.456,3.318l-4.954,0.004l1.811,13.899l5.944-0.006l-0.448-4.727l8.811-0.034l0.737,4.753l6.023-0.004
	L301.655,2.12l-4.912-0.028l-0.427-3.358L306.464-1.268"/>
<path fill="#A9A09D" d="M246.01,12.793l8.372-0.006l3.705,36.793l-25.345,0.014l-2.261-29.955l-9.385-0.229l1.948,30.184
	l-25.343,0.014l-2.721-71.012l55.956-0.052l2.653,26.349l-8.355-0.008L246.01,12.793z M229.48,5.743l-1.1-14.609l-9.107,0.002
	l0.941,14.612L229.48,5.743"/>
<polygon fill="#A9A09D" points="153.907,-8.804 186.369,-8.832 186.009,-21.398 130.112,-21.338 127.724,49.625 188.029,49.608 
	187.61,35.016 153.13,35.029 "/>
<path fill="#282729" d="M-147.592,49.719c-1.818,0-2.234,1.029-0.92,2.288l17.935,17.189c1.31,1.255,3.874,2.289,5.693,2.289h15.788
	c1.819,0,2.289-1.09,1.051-2.422l-15.85-16.94c-1.238-1.325-3.745-2.415-5.565-2.415L-147.592,49.719z"/>
<path fill="#282729" d="M-86.99,49.7c-1.82,0-2.356,1.144-1.187,2.536l14.003,16.707c1.167,1.4,3.611,2.538,5.431,2.538h16.555
	c1.82,0,2.419-1.193,1.334-2.655l-12.262-16.481c-1.087-1.462-3.463-2.657-5.283-2.655L-86.99,49.7z"/>
<path fill="#282729" d="M-108.807,34.26c-1.818,0-2.321,1.112-1.113,2.479l15.583,17.59c1.207,1.362,3.409,2.42,4.897,2.345
	c1.483-0.068,1.844-1.345,0.798-2.835l-1.086-1.54c-1.049-1.486-1.509-4.138-1.022-5.895l0.302-1.098
	c0.49-1.749-0.041-4.354-1.168-5.78l-2.118-2.674c-1.128-1.429-3.539-2.594-5.357-2.594h-9.716V34.26z"/>
<path fill="#282729" d="M-52.205,49.863c-1.822,0.003-2.423,1.206-1.347,2.67l11.979,16.285c1.071,1.468,3.443,2.667,5.265,2.667
	h16.307c1.818,0,2.515-1.259,1.544-2.801L-28.54,52.658c-0.969-1.542-3.247-2.803-5.066-2.799L-52.205,49.863z"/>
<path fill="#282729" d="M-17.286,49.675c-1.818,0-2.532,1.271-1.58,2.822l9.717,15.908c0.951,1.553,3.209,2.823,5.031,2.823h16.045
	c1.822,0,2.656-1.337,1.851-2.97L6.117,52.637c-0.803-1.634-2.945-2.966-4.765-2.966L-17.286,49.675z"/>
<path fill="#282729" d="M26.208,49.66c-1.818,0-2.68,1.351-1.916,3.002l7.315,15.819c0.767,1.653,2.878,3.002,4.698,3.002h16.564
	c1.819,0,2.796-1.398,2.167-3.104L49.31,52.756c-0.629-1.707-2.625-3.104-4.447-3.104L26.208,49.66z"/>
<path fill="#282729" d="M61.136,49.65c-1.818,0-2.805,1.404-2.192,3.109l5.398,15.088c0.61,1.72,2.601,3.118,4.42,3.118h48.997
	c1.822,0,3.101-1.479,2.846-3.273l-2.093-14.791c-0.253-1.805-1.954-3.273-3.767-3.273L61.136,49.65z"/>
<path fill="#282729" d="M131.03,49.625c-1.818,0-3.147,1.478-2.952,3.288l1.648,15.281c0.196,1.811,1.842,3.287,3.661,3.287h48.745
	c1.82,0,3.483-1.48,3.697-3.283l1.809-15.307c0.215-1.809-1.104-3.285-2.921-3.283L131.03,49.625z"/>
<path fill="#282729" d="M201.013,49.604c-1.818,0-3.493,1.48-3.725,3.283l-1.906,15.058c-0.23,1.807,1.069,3.281,2.89,3.281h16.313
	c1.818,0,3.655-1.448,4.073-3.217l3.622-15.198c0.414-1.771-0.724-3.217-2.542-3.215L201.013,49.604z"/>
<path fill="#282729" d="M236.049,49.593c-1.818,0-3.649,1.45-4.071,3.221l-3.542,14.938c-0.42,1.771,0.721,3.22,2.544,3.22h16.309
	c1.823,0,3.801-1.402,4.402-3.122l5.312-15.147c0.596-1.715-0.395-3.119-2.216-3.117L236.049,49.593z"/>
<path fill="#282729" d="M271.081,49.577c-1.826,0-3.809,1.404-4.414,3.119l-5.442,15.417c-0.605,1.713,0.385,3.115,2.203,3.115
	h16.295c1.821,0,3.94-1.351,4.714-3.002l7.314-15.659c0.769-1.652-0.088-3-1.904-3L271.081,49.577z"/>
<path fill="#282729" d="M306.157,49.567c-1.82,0.002-3.958,1.338-4.757,2.974l-7.65,15.711c-0.795,1.638,0.044,2.975,1.86,2.975
	h16.817c1.82,0,4.052-1.287,4.96-2.86l9.188-15.937c0.912-1.572,0.167-2.862-1.655-2.862H306.157z"/>
<path fill="#282729" d="M341.254,49.553c-1.817,0-4.084,1.273-5.028,2.827l-9.753,16.021c-0.948,1.555-0.235,2.827,1.581,2.827
	h16.559c1.82,0,4.173-1.213,5.227-2.693l11.59-16.289c1.052-1.484,0.431-2.695-1.396-2.695L341.254,49.553z"/>
<path fill="#282729" d="M428.87,49.527c-1.819,0-4.293,1.113-5.496,2.479l-14.555,16.482c-1.205,1.367-0.701,2.48,1.12,2.48h15.781
	c1.824,0,4.374-1.042,5.679-2.307l17.245-16.837c1.299-1.269,0.877-2.307-0.944-2.305L428.87,49.527z"/>
<path fill="#020303" d="M-132.356-9.304c-0.169,0.461,1.179,0.843,2.997,0.847l17.341,0.07c1.818,0.01,3.325-0.385,3.354-0.869
	c0.024-0.486-1.444-0.886-3.264-0.886h-16.813C-130.563-10.143-132.189-9.766-132.356-9.304"/>
<path fill="#020303" d="M-133.56,26.732c0.564-1.729-0.458-3.144-2.275-3.144h-4.237c-1.819,0-3.304,0.349-3.304,0.771
	c0,0.424,1.487,0.775,3.304,0.775h2.098c1.818,0,2.844,1.411,2.274,3.142l-3.854,11.734c-0.566,1.733,0.458,3.146,2.278,3.146
	h12.992c1.822,0,3.309-0.349,3.309-0.773c0-0.425-1.487-0.771-3.309-0.771h-10.856c-1.822,0-2.846-1.416-2.275-3.146l0.308-0.924
	c0.567-1.729,2.521-3.143,4.338-3.143h10.028c1.822,0,3.311-0.347,3.311-0.769c0-0.429-1.489-0.773-3.311-0.773h-9.522
	c-1.818,0-2.842-1.41-2.274-3.144L-133.56,26.732z"/>
<path fill="#020303" d="M-64.409-6.268c0.247-1.799-1.045-3.275-2.86-3.275l-5.027,0.006c-1.819,0.002-3.437,0.351-3.6,0.773
	C-76.058-8.348-74.698-8-72.878-8h3.845c1.82,0,3.108,1.474,2.861,3.277l-0.705,5.206c-0.245,1.803-1.934,3.275-3.749,3.275h-15.889
	c-1.819,0-3.307,0.349-3.307,0.771c0,0.424,1.487,0.775,3.307,0.775h15.679h3.747h3.749h8.058c1.819,0,3.306-0.351,3.306-0.775
	c0-0.422-1.487-0.771-3.306-0.771h-7.178c-1.818,0-3.111-1.474-2.863-3.275L-64.409-6.268z"/>
<path fill="#020303" d="M-42.587,41.031c0.327-1.791,0.117-2.49-0.467-1.56c-0.585,0.924-1.336,3.149-1.672,4.941l-0.492,2.624
	c-0.335,1.785,0.225,4.48,1.247,5.99l0.832,1.223c1.024,1.506,2.656,3.327,3.629,4.048c0.971,0.724,0.94,0.076-0.072-1.436
	l-2.791-4.174c-1.011-1.514-1.573-4.211-1.244-6.004L-42.587,41.031z"/>
<path fill="#020303" d="M-17.727-6.796c0-0.425-1.485-0.745-3.302-0.709l-6.52,0.127c-1.82,0.04-2.554,0.357-1.634,0.709
	c0.92,0.355,3.162,0.646,4.979,0.646h3.172C-19.212-6.024-17.727-6.372-17.727-6.796"/>
<path fill="#020303" d="M-8.144,44.78c0.398-1.777,0.198-2.444-0.436-1.486c-0.63,0.962-1.389,2.783-1.687,4.048
	c-0.298,1.269-0.059,3.571,0.532,5.115c0.589,1.55,1.609,3.509,2.265,4.353c0.658,0.841,0.73,0.124,0.156-1.605l-0.84-2.521
	c-0.574-1.729-0.722-4.598-0.33-6.371L-8.144,44.78z"/>
<path fill="#020303" d="M-14.377,26.847c-1.82-0.092-3.323,0.177-3.35,0.604c-0.018,0.425,1.453,0.845,3.27,0.938L4.03,29.325
	c1.813,0.09,3.776,0.903,4.355,1.804c0.579,0.894,1.344,1.444,1.699,1.217c0.358-0.229,0.084-1.308-0.617-2.389
	c-0.695-1.081-2.76-2.044-4.567-2.138L-14.377,26.847z"/>
<path fill="#020303" d="M5.193-9.257c0.705,0.492,2.772,0.894,4.592,0.894h1.405c1.818,0,3.309-0.347,3.309-0.775
	c0-0.42-1.489-0.807-3.309-0.847L7.21-10.07C5.393-10.115,4.485-9.744,5.193-9.257"/>
<path fill="#020303" d="M27.265,27.313c-1.816,0.076-3.292,0.488-3.274,0.91c0.016,0.425,1.52,0.71,3.333,0.632l10.74-0.456
	c1.817-0.078,3.083,1.331,2.809,3.132L38.626,46.38c-0.277,1.795-0.07,4.693,0.457,6.436l0.467,1.557
	c0.529,1.74,1.575,4.041,2.338,5.115c0.763,1.071,0.955,0.523,0.434-1.219l-1.66-5.564c-0.518-1.743-0.722-4.642-0.452-6.436
	l2.468-16.363c0.271-1.799-0.992-3.209-2.811-3.129L27.265,27.313z"/>
<path fill="#020303" d="M30.945-9.629c-0.074,0.418,1.333,1.01,3.13,1.313l18.304,2.151c1.803,0.223,3.28,0.056,3.28-0.369
	c0-0.428-1.477-0.962-3.28-1.187L34.337-9.838C32.54-10.143,31.012-10.048,30.945-9.629"/>
<path fill="#020303" d="M70.773,36.937c0.059-1.821-1.371-3.303-3.192-3.303h-6.546c-1.818,0-3.309,0.351-3.309,0.771
	c0,0.425,1.491,0.775,3.309,0.775h4.944c1.818,0,3.254,1.487,3.192,3.303l-0.265,7.638c-0.063,1.818,0.255,4.745,0.706,6.504
	l1.221,4.776c0.455,1.762,1.3,4.064,1.89,5.116c0.583,1.056,0.736,0.462,0.332-1.313l-1.979-8.723
	c-0.399-1.773-0.679-4.713-0.618-6.53L70.773,36.937z"/>
<path fill="#020303" d="M61.589-0.613c0,0.424,1.489,0.775,3.309,0.775h6.254c1.817,0,4.059-0.408,4.979-0.9
	c0.922-0.496,0.183-0.878-1.633-0.853l-9.601,0.155C63.079-1.408,61.589-1.037,61.589-0.613"/>
<path fill="#020303" d="M104.152,7.323c-0.043-1.82-0.428-3.309-0.86-3.309c-0.418,0-0.767,1.488-0.767,3.309v7.548
	c0,1.821,0.403,2.435,0.899,1.377c0.494-1.064,0.861-3.418,0.818-5.239L104.152,7.323z"/>
<path fill="#020303" d="M111.683,35.475c-0.066,1.818-1.604,3.301-3.425,3.301h-5.004c-1.817,0-3.309,1.489-3.309,3.311v4.974
	c0,1.821,0.345,3.308,0.776,3.308c0.426,0,0.773-1.488,0.773-3.308v-3.428c0-1.819,1.487-3.303,3.311-3.303h4.953
	c1.818,0,3.355-1.488,3.418-3.31l0.053-1.602c0.062-1.82-0.235-3.316-0.66-3.334c-0.424-0.017-0.826,1.46-0.887,3.274
	L111.683,35.475L111.683,35.475z"/>
<path fill="#020303" d="M175.013,38.917c-0.354,0.678-0.486,2.712-0.293,4.521l0.329,3.117c0.189,1.809,0.14,4.764-0.107,6.565
	l-2.178,15.761c-0.247,1.799-0.025,3.251,0.492,3.229c0.523-0.026,1.134-1.522,1.358-3.329l1.937-15.63
	c0.221-1.809,0.247-4.767,0.05-6.573l-0.594-5.602C175.813,39.168,175.367,38.24,175.013,38.917"/>
<path fill="#020303" d="M128.531,63.242c0,0.425,1.487,0.774,3.307,0.774h0.857c1.818,0,3.305-0.347,3.305-0.774
	c0-0.422-1.487-0.771-3.305-0.771h-0.857C130.019,62.471,128.531,62.82,128.531,63.242"/>
<path fill="#020303" d="M134.457,1.443c0.851,0.424,2.995,1.102,4.77,1.502l12.742,2.275c1.674,0.721,3.176,0.992,3.343,0.602
	c0.171-0.388-1.104-1.177-2.829-1.749l-16.321-2.783C134.373,0.947,133.606,1.018,134.457,1.443"/>
<path fill="#020303" d="M134.194,15.734c0.708-0.498-0.199-0.849-2.017-0.781l-0.596,0.02c-1.824,0.065-3.307,0.468-3.307,0.892
	c0,0.424,1.042,0.771,2.313,0.771C131.864,16.636,133.484,16.23,134.194,15.734"/>
<path fill="#020303" d="M206.181,2.214c0.107,0.992,1.685,1.803,3.51,1.803h1.442c1.816,0,3.533,0.08,3.801,0.171
	c0.279,0.098,1.303,0.825,1.665,0.608c0.362-0.217,0.096-0.825-0.59-1.346c-0.685-0.522-2.813-0.962-4.631-0.968h-0.305
	c-1.823-0.002-3.475-1.486-3.678-3.289l-2.028-18.233c-0.207-1.813-0.719-3.251-1.137-3.201c-0.419,0.048-0.605,1.566-0.4,3.372
	l1.609,14.455c0.203,1.807-1.132,3.285-2.944,3.285h-5.249c-1.818,0-3.305,0.347-3.305,0.767c0,0.424,1.486,0.771,3.305,0.771h5.42
	C204.487,0.407,206.064,1.221,206.181,2.214"/>
<path fill="#020303" d="M203.967,38.495c0.122,1.813-0.516,4.588-1.424,6.165l-1.383,1.556c-0.422,1.771-0.43,3.289-0.016,3.379
	c0.418,0.088,1.213-1.255,1.765-2.988c0,0,0.212-0.755,0.883-1.709c0.663-0.958,1.404-1.741,1.628-1.741
	c0.227,0,0.316-1.487,0.19-3.299l-0.573-8.337c-0.128-1.813,1.259-3.297,3.082-3.297h12.388c1.821,0,3.304-0.348,3.304-0.773
	c0-0.422-1.486-0.774-3.304-0.774h-14.044c-1.816,0-3.211,1.487-3.083,3.301L203.967,38.495z"/>
<path fill="#020303" d="M229.985,32.089c0,0.424,1.486,0.772,3.307,0.772h8.319c1.82,0,3.944-0.349,4.725-0.772
	c0.789-0.427-0.064-0.777-1.88-0.777l-11.168,0.004C231.476,31.315,229.985,31.664,229.985,32.089"/>
<path fill="#020303" d="M237.129,10.282c0.462,0.382,2.327,0.695,4.143,0.695h2.402c1.82,0,3.307-0.349,3.307-0.771
	c0-0.428-1.486-0.755-3.307-0.727l-4.071,0.058C237.778,9.564,236.671,9.899,237.129,10.282"/>
<path fill="#020303" d="M194.71,64.529c-0.036,0.422,1.427,0.878,3.239,1.006l18.387,1.325c1.811,0.131,3.318-0.108,3.356-0.532
	c0.03-0.423-1.431-0.875-3.247-1.006l-18.377-1.321C196.256,63.872,194.742,64.106,194.71,64.529"/>
<path fill="#020303" d="M302.04,31.535c-1.819,0.021-3.303,0.384-3.301,0.809c0.002,0.424,1.494,0.757,3.311,0.739l22.482,2.498
	c1.809,0.175,3.414-0.006,3.558-0.404c0.149-0.394-1.213-0.873-3.018-1.057L302.04,31.535z"/>
<path fill="#020303" d="M372.13,2.985c-0.398,0.141-0.646,1.743-0.56,3.561l2.054,10.359c-0.778,1.644-1.107,3.144-0.725,3.334
	c0.384,0.191,1.343-0.994,2.131-2.633l-2.004-11.576C372.931,4.214,372.532,2.845,372.13,2.985"/>
<path fill="#020303" d="M360.197-16.324c-1.627,0-3.378-1.386-3.9-3.074c-0.517-1.693-1.271-2.974-1.681-2.849
	c-0.4,0.125-0.297,1.651,0.235,3.389l0.282,0.92c0.532,1.741,2.303,3.161,3.942,3.161c1.634,0,3.456,1.404,4.042,3.129l0.769,2.227
	c0.59,1.723,1.404,3.018,1.797,2.879c0.402-0.134,0.247-1.656-0.342-3.377l-1.124-3.277
	C363.632-14.914,361.819-16.324,360.197-16.324"/>
<path fill="#020303" d="M421.27,28.481c-1.816,0-3.303,0.347-3.303,0.772c0,0.429,1.486,0.779,3.303,0.779h21.198
	c1.822,0,3.307-0.351,3.307-0.779c0-0.426-1.488-0.772-3.307-0.772H421.27z"/>
<path fill="#020303" d="M437.274-7.826c0.406-0.111,0.358-1.639-0.128-3.393L435.023-19c-0.471-1.757-1.203-3.101-1.618-2.988
	c-0.4,0.111-0.35,1.639,0.13,3.392l2.123,7.779C436.143-9.061,436.868-7.717,437.274-7.826"/>
<path fill="#020303" d="M-76.562-8.279h6.928c1.817,0,1.844-0.291,0.059-0.635l-2.389-0.468c-1.787-0.349-3.153-0.028-3.047,0.721
	L-76.562-8.279z"/>
<path fill="#020303" d="M-115.317,60.276c-0.705-0.779-2.762-1.235-4.563-1.019l-3.996,0.494c-1.806,0.22-1.806,0.574,0.002,0.789
	l6.558,0.773C-115.507,61.523-114.607,61.058-115.317,60.276"/>
<path fill="#020303" d="M-49.785,68.778c-0.492-0.779-2.38-1.293-4.196-1.136l-8.598,0.728c-1.814,0.149-1.814,0.412-0.004,0.577
	l10.409,0.942C-50.363,70.055-49.283,69.557-49.785,68.778"/>
<path fill="#020303" d="M29.53,65.561c-0.212-0.708,1.098-1.243,2.92-1.191l2.143,0.063c1.817,0.048,1.878,0.51,0.128,1.018
	l-1.635,0.471C31.342,66.429,29.741,66.266,29.53,65.561"/>
<path fill="#020303" d="M120.29,60.539c-0.138-1.062-1.723-1.723-3.525-1.466l-6.079,0.866c-1.793,0.257-1.793,0.699-0.002,0.982
	l6.591,1.035C119.074,62.24,120.429,61.602,120.29,60.539"/>
<path fill="#020303" d="M127.883,64.219c-0.092-1.062,1.318-1.755,3.121-1.552l0.19,0.023c1.811,0.207,1.949,1.02,0.308,1.809
	l-0.467,0.224C129.392,65.505,127.975,65.278,127.883,64.219"/>
<path fill="#020303" d="M70.471,46.505c-0.214-1.558-0.62-1.673-0.904-0.257c-0.283,1.416-0.089,4,0.434,5.741l0.415,1.387
	c0.525,1.743,0.851,1.681,0.722-0.128l-0.043-0.611C70.96,50.822,70.685,48.064,70.471,46.505"/>
<path fill="#020303" d="M100.594,47.662c-0.355-0.637-0.594,0.327-0.529,2.143l0.027,0.863c0.064,1.818,0.347,2.146,0.637,0.731
	C101.007,49.981,100.95,48.3,100.594,47.662"/>
<path fill="#020303" d="M39.571,47.016c-0.074-1.56-0.359-1.56-0.639,0c-0.284,1.563-0.044,4.248,0.524,5.975l0.481,1.446
	c0.574,1.726,0.802,1.665,0.502-0.126l-0.196-1.194C39.944,51.318,39.638,48.579,39.571,47.016"/>
<path fill="#020303" d="M-9.488,48.179c-0.283-0.638-0.752-0.522-1.028,0.257c-0.284,0.778,0.01,2.223,0.647,3.215
	c0.636,0.99,1.105,0.879,1.031-0.257C-8.912,50.263-9.202,48.817-9.488,48.179"/>
<path fill="#020303" d="M-43.735,47.087c-0.351-1.562-0.987-1.389-1.411,0.383v0.006c-0.426,1.767,0.272,4.259,1.542,5.533
	c1.272,1.277,1.907,1.104,1.416-0.384C-42.688,51.135-43.38,48.646-43.735,47.087"/>
<path fill="#020303" d="M-105.4,44.834c-0.495-0.638,0.584-1.028,2.397-0.873l5.244,0.456c1.814,0.158,1.818,0.473,0.017,0.708
	l-3.476,0.448C-103.02,45.804-104.902,45.471-105.4,44.834"/>
<path fill="#020303" d="M175.447,45.913c0.259-1.799,0.772-1.818,1.163-0.041l0.155,0.744c0.383,1.779,0.314,4.674-0.151,6.431
	l-0.629,2.362c-0.467,1.754-0.889,1.706-0.94-0.113l-0.066-2.138c-0.054-1.82,0.114-4.78,0.373-6.583L175.447,45.913z"/>
<path fill="#020303" d="M154.798,6.208c0,0.779-1.233,0.574-2.737-0.442l-0.973-0.659c-1.506-1.024-1.292-1.514,0.479-1.09
	l0.008,0.002C153.352,4.449,154.798,5.427,154.798,6.208"/>
<path fill="#020303" d="M255.353,58.604c0.209-0.709-1.104-1.242-2.927-1.193l-2.396,0.068c-1.816,0.054-1.868,0.496-0.123,0.992
	l1.872,0.524C253.535,59.485,255.139,59.307,255.353,58.604"/>
<path fill="#020303" d="M242.472,47.664c-0.498-1.063-0.849-0.441-0.779,1.377l0.013,0.339c0.071,1.816,0.472,2.607,0.895,1.759
	C243.029,50.288,242.972,48.726,242.472,47.664"/>
<path fill="#020303" d="M288.186,61.826c0.282-0.781-0.973-1.297-2.781-1.151l-6.283,0.504c-1.815,0.144-1.826,0.484-0.027,0.759
	l5.307,0.807C286.193,63.019,287.898,62.604,288.186,61.826"/>
<path fill="#020303" d="M281.747,48.051c-0.287-0.854-0.689-0.91-0.9-0.131c-0.212,0.78-0.149,2.519,0.127,3.866
	c0.283,1.345,0.69,1.404,0.897,0.127C282.086,50.638,282.029,48.901,281.747,48.051"/>
<path fill="#020303" d="M373.026,20.626c-0.638-0.213-0.577-1.719,0.132-3.349c0.705-1.629,1.227-1.478,1.155,0.34l-0.006,0.092
	C374.242,19.527,373.664,20.842,373.026,20.626"/>
<path fill="#020303" d="M329.766,60.021c0.639-0.777,2.631-1.195,4.428-0.927l8.908,1.337c1.801,0.268,1.787,0.534-0.027,0.584
	l-11.159,0.326C330.096,61.399,329.134,60.802,329.766,60.021"/>
<path fill="#020303" d="M414.223,60.021c0.78-1.063,2.88-1.651,4.669-1.303l8.186,1.579c1.782,0.345,1.759,0.709-0.058,0.819
	l-10.907,0.639C414.29,61.87,413.445,61.087,414.223,60.021"/>
<path fill="#020303" d="M417.577,29.122c-0.354-1.203,0.822-1.968,2.621-1.701l7.362,1.088c1.797,0.268,1.805,0.753,0.015,1.082
	l-6.098,1.121C419.688,31.039,417.936,30.325,417.577,29.122"/>
<path fill="#020303" d="M408.943-6.667c-0.563-0.498-1.086-2.391-1.147-4.207l-0.014-0.345c-0.063-1.816,0.261-1.862,0.727-0.106
	l0.622,2.361C409.593-7.207,409.509-6.169,408.943-6.667"/>
<path fill="#020303" d="M327.066,36.465l-4.654-1.864c-1.689-0.675-1.591-1.09,0.22-0.92l4.944,0.464"/>
<path fill="#020303" d="M150.292,51.393c0.348-0.988,0.348-2.552,0-3.477c-0.35-0.918-2.129-1.667-3.947-1.667h-1.891
	c-1.82,0-3.827,0.868-4.463,1.933c-0.639,1.063,0.273,2.341,2.023,2.837l4.461,1.272C148.226,52.788,149.942,52.382,150.292,51.393"
	/>
<path fill="#020303" d="M147.202,48.82c-1.209-1.271-1.148-2.319,0.128-2.319c1.275,0,2.84,0.64,3.477,1.419
	c0.635,0.78,0.367,2.681-0.598,4.223l-0.357,0.571c-0.969,1.538-1.463,1.819-1.111,0.614
	C149.103,52.119,148.406,50.096,147.202,48.82"/>
<path fill="#020303" d="M30.684-9.115c0.142-0.99,1.699-1.442,3.461-0.998l0.794,0.199c1.766,0.444,1.758,1.141-0.013,1.556
	l-1.279,0.297C31.877-7.647,30.541-8.119,30.684-9.115"/>
<path fill="#020303" d="M-52.617,4.917c-0.357,0.638-2.087,0.809-3.859,0.385l-1.039-0.251c-1.764-0.424-1.732-0.863,0.089-0.972
	l2.144-0.125C-53.463,3.845-52.261,4.28-52.617,4.917"/>
<path fill="#020303" d="M-119.695,33.371c0.288-0.853-0.946-1.263-2.729-0.912l-2.768,0.538c-1.785,0.351-1.777,0.866,0.018,1.146
	l1.697,0.267C-121.684,34.688-119.979,34.223-119.695,33.371"/>
<path fill="#282729" d="M-114.545,60.539c-0.564-0.636-0.611-2.59-0.095-4.329l0.71-2.414c0.512-1.745,0.859-1.688,0.775,0.13
	l-0.208,4.464C-113.447,60.215-113.977,61.173-114.545,60.539"/>
<path fill="#282729" d="M-50.168,69.033c-0.567-0.354-0.567-1.914,0-3.477c0.567-1.558,1.03-1.34,1.03,0.479v0.335
	C-49.139,68.188-49.602,69.389-50.168,69.033"/>
<path fill="#282729" d="M7.897,30.284c-0.068-1.134,0.415-0.68,1.082,1.018l0.407,1.054c0.669,1.693,0.635,2.383-0.075,1.534
	C8.604,33.039,7.967,31.417,7.897,30.284"/>
<path fill="#282729" d="M330.544,61.054c0.634-0.498,0.747-2.334,0.247-4.083l-0.761-2.655c-0.498-1.747-0.872-1.691-0.825,0.127
	l0.104,4.205C329.349,60.468,329.906,61.549,330.544,61.054"/>
<path fill="#282729" d="M415.517,60.535c0.921-0.496,1.052-2.253,0.287-3.902l-3.41-7.383c-0.761-1.657-1.111-1.548-0.779,0.247
	l1.624,8.689C413.57,59.977,414.597,61.033,415.517,60.535"/>
<path fill="#282729" d="M419.119,28.995c-0.355-0.709-1.301,0.048-2.104,1.68l-3.518,7.194c-0.805,1.634-0.582,1.769,0.494,0.304
	l3.82-5.226C418.888,31.485,419.478,29.708,419.119,28.995"/>
<path fill="#020303" d="M363.883-6.282l0.142-4.157c0.06-1.821,0.486-1.867,0.946-0.108l1.228,4.779"/>
<path fill="#595558" d="M-126.772,62.34c-1.627-0.496-1.511-0.787,0.258-0.64c1.768,0.138,4.377,0.431,5.79,0.642
	c1.414,0.211,1.299,0.504-0.257,0.64C-122.539,63.125-125.144,62.834-126.772,62.34"/>
<path fill="#595558" d="M-45.256,53.22c-1.284-1.285-1.471-1.128-0.416,0.351l1.306,1.828c1.056,1.48,2.735,3.211,3.728,3.85
	c0.99,0.638,0.935,0.12-0.126-1.157c-1.065-1.274-2.988-3.37-4.273-4.655L-45.256,53.22z"/>
<path fill="#595558" d="M-12.06,49.596c-0.428,0-0.194,1.213,0.514,2.705c0.708,1.486,1.055,1.486,0.773,0
	C-11.057,50.807-11.635,49.596-12.06,49.596"/>
<path fill="#595558" d="M35.328,66.077c-1.418-0.144-1.109-0.524,0.68-0.853l1.976-0.358c1.789-0.325,2.503-0.126,1.582,0.441
	C38.653,65.872,36.742,66.217,35.328,66.077"/>
<path fill="#595558" d="M68.408,52.298c-0.639-0.918-0.871-0.343-0.518,1.287c0.355,1.627,1.283,4.121,2.063,5.536
	c0.773,1.418,1.077,1.127,0.664-0.642l-0.298-1.281C69.903,55.422,69.047,53.217,68.408,52.298"/>
<path fill="#595558" d="M177.85,55.129c-0.215-1.063-0.741-0.891-1.161,0.382c-0.425,1.275-0.773,3.706-0.773,5.411
	c0,1.697,0.473,1.677,1.05-0.046l0.226-0.68C177.762,58.473,178.061,56.19,177.85,55.129"/>
<path fill="#595558" d="M141.382,48.037c-0.358-1.084-1.18-0.899-1.828,0.41c-0.646,1.311,0.169,3.032,1.802,3.829l0.082,0.035
	c1.628,0.793,2.437,0.602,1.785-0.43C142.575,50.855,141.742,49.125,141.382,48.037"/>
<path fill="#595558" d="M202.563,66.589c-1.625-0.422-1.472-0.771,0.347-0.771h0.598c1.817,0,4.636,0.462,6.271,1.029
	c1.625,0.566,1.477,0.927-0.343,0.795l-0.607-0.042C207.016,67.468,204.196,67.015,202.563,66.589"/>
<path fill="#595558" d="M243.894,52.298c-0.135-0.638-0.661-0.056-1.159,1.287c-0.502,1.343-0.383,1.868,0.259,1.159
	C243.627,54.035,244.037,52.931,243.894,52.298"/>
<path fill="#595558" d="M283.651,50.893c-0.143-0.632-0.665-0.056-1.159,1.291c-0.498,1.343-0.379,1.87,0.259,1.157
	C283.385,52.631,283.795,51.531,283.651,50.893"/>
<path fill="#595558" d="M277.269,62.836c-1.789-0.343-1.765-0.769,0.044-0.946l1.402-0.134c1.809-0.173,4.042,0.144,4.969,0.716
	c0.92,0.566,0.629,1.029-0.646,1.029c-1.275,0-3.777-0.28-5.566-0.625L277.269,62.836z"/>
<path fill="#595558" d="M335.697,62.728c-1.631,0.14-1.631-0.149,0-0.644c1.626-0.498,4.444-0.779,6.253-0.623l2.423,0.213
	c1.809,0.153,1.809,0.368-0.008,0.47l-2.41,0.136C340.142,62.387,337.321,62.589,335.697,62.728"/>
<path fill="#282729" d="M373.409,21.142c-0.849,0.357-2.116,2.018-2.813,3.697l-0.036,0.069c-0.697,1.682-0.375,1.871,0.721,0.42
	l1.666-2.197C374.055,21.68,374.262,20.785,373.409,21.142"/>
<path fill="#020303" d="M437.405-7.053c-0.78,0-1.563-1.482-1.74-3.293l-0.132-1.396c-0.176-1.815,0.297-1.938,1.044-0.281
	l0.889,1.956C438.211-8.41,438.187-7.053,437.405-7.053"/>
<path fill="#020303" d="M194.068,0.282c-0.067-0.918,1.363-1.622,3.18-1.56l1.106,0.036c1.818,0.062,1.931,0.679,0.253,1.375
	l-1.356,0.554C195.57,1.383,194.137,1.2,194.068,0.282"/>
<path fill="#020303" d="M103.557,3.63c-0.713-0.355-1.104,0.831-0.867,2.633l0.181,1.43c0.237,1.803,0.759,1.829,1.173,0.056
	l0.053-0.251C104.512,5.728,104.265,3.987,103.557,3.63"/>
<path fill="#020303" d="M22.567,28.738c-0.213-0.707,1.102-1.285,2.922-1.285h7.038c1.818,0,1.846,0.293,0.063,0.646L26.2,29.373
	C24.417,29.73,22.776,29.447,22.567,28.738"/>
<path fill="#020303" d="M-121.174,42.897c0.109-0.53-1.293-0.97-3.114-0.97h-1.689c-1.824,0-1.865,0.356-0.098,0.788l1.495,0.365
	C-122.815,43.514-121.284,43.428-121.174,42.897"/>
<path fill="#E1DCD7" d="M-146.776,48.786c-1.82,0.021-3.017,0.326-2.659,0.68c0.358,0.356,2.136,0.645,3.953,0.645h13.476
	c1.814,0,3.595-0.347,3.949-0.773c0.355-0.427-0.849-0.755-2.667-0.735L-146.776,48.786z"/>
<path fill="#E1DCD7" d="M-85.742,48.786c-1.824,0.021-3.023,0.326-2.664,0.68c0.354,0.356,2.127,0.645,3.945,0.645h13.476
	c1.817,0,3.597-0.347,3.953-0.773c0.355-0.427-0.849-0.755-2.664-0.735L-85.742,48.786z"/>
<path fill="#E1DCD7" d="M-51.43,48.519c-1.818,0.056-3.208,0.397-3.094,0.753c0.122,0.356,1.708,0.643,3.527,0.643h0.232
	c1.82,0,3.406-0.348,3.531-0.772c0.119-0.429-1.269-0.723-3.088-0.665L-51.43,48.519z"/>
<path fill="#E1DCD7" d="M-112.653,18.584c-1.817,0.062-3.207,0.402-3.086,0.755c0.127,0.355,1.711,0.646,3.529,0.646h0.228
	c1.818,0,3.403-0.349,3.529-0.773c0.121-0.428-1.268-0.725-3.086-0.667L-112.653,18.584z"/>
<path fill="#E1DCD7" d="M-87.355,18.584c-1.816,0.062-3.203,0.402-3.085,0.755c0.127,0.355,1.711,0.646,3.525,0.646h0.231
	c1.819,0,3.404-0.349,3.527-0.773c0.125-0.428-1.269-0.725-3.089-0.667L-87.355,18.584z"/>
<path fill="#E1DCD7" d="M-137.958,22.626c-1.815,0.066-3.21,0.408-3.103,0.767c0.105,0.354,1.586,0.641,3.278,0.641
	c1.693,0,3.168-0.349,3.274-0.771c0.11-0.424-1.287-0.719-3.103-0.649L-137.958,22.626z"/>
<path fill="#E1DCD7" d="M-107.631,32.925c-1.822,0.034-3.123,0.35-2.9,0.706c0.228,0.356,1.9,0.639,3.716,0.639h6.046
	c1.822,0,3.492-0.344,3.715-0.767c0.226-0.424-1.08-0.743-2.896-0.713L-107.631,32.925z"/>
<path fill="#E1DCD7" d="M-121.537-11.103c-1.822,0.032-3.123,0.349-2.897,0.701c0.223,0.352,1.896,0.642,3.711,0.642h6.054
	c1.821,0,3.492-0.347,3.715-0.771c0.22-0.426-1.086-0.749-2.903-0.717L-121.537-11.103z"/>
<path fill="#E1DCD7" d="M-16.287,48.519c-1.815,0.056-3.207,0.397-3.084,0.753c0.125,0.356,1.708,0.643,3.525,0.643h0.227
	c1.817,0,3.408-0.348,3.531-0.772c0.122-0.429-1.267-0.723-3.091-0.665L-16.287,48.519z"/>
<path fill="#E1DCD7" d="M43.772,48.509c-1.82,0.065-3.217,0.408-3.106,0.766c0.108,0.356,1.585,0.647,3.279,0.647
	c1.699,0,3.169-0.351,3.276-0.779c0.109-0.424-1.296-0.715-3.103-0.649L43.772,48.509z"/>
<path fill="#E1DCD7" d="M-5.083,48.564c-1.818,0.042-3.149,0.357-2.952,0.712c0.194,0.356,1.842,0.639,3.66,0.639h4.52
	c1.82,0,3.465-0.348,3.662-0.771C4,48.72,2.671,48.399,0.853,48.439L-5.083,48.564z"/>
<path fill="#E1DCD7" d="M26.781,48.569c-1.822,0.035-3.127,0.351-2.909,0.707c0.22,0.356,1.887,0.641,3.704,0.641h5.697
	c1.822,0,3.487-0.348,3.709-0.772c0.216-0.424-1.093-0.747-2.911-0.709L26.781,48.569z"/>
<path fill="#E1DCD7" d="M61.934,48.547c-1.818,0.046-3.176,0.375-3.021,0.728c0.161,0.356,1.779,0.639,3.596,0.639h2.462
	c1.818,0,3.438-0.348,3.601-0.772c0.162-0.425-1.195-0.735-3.017-0.69L61.934,48.547z"/>
<path fill="#E1DCD7" d="M131.644,48.547c-1.818,0.046-3.176,0.375-3.013,0.728c0.163,0.356,1.783,0.639,3.603,0.639h2.452
	c1.816,0,3.439-0.348,3.603-0.772c0.163-0.425-1.193-0.735-3.011-0.69L131.644,48.547z"/>
<path fill="#E1DCD7" d="M181.275,48.535c-1.816,0.05-3.191,0.385-3.047,0.737c0.144,0.356,1.744,0.643,3.569,0.643h1.429
	c1.818,0,3.424-0.348,3.567-0.772c0.148-0.427-1.224-0.731-3.044-0.68L181.275,48.535z"/>
<path fill="#E1DCD7" d="M206.003,48.587c-1.818,0.025-3.06,0.333-2.755,0.688c0.305,0.356,2.044,0.639,3.86,0.639h10.802
	c1.816,0,3.556-0.348,3.864-0.772c0.311-0.425-0.929-0.755-2.749-0.729L206.003,48.587z"/>
<path fill="#E1DCD7" d="M236.514,48.525c-1.819,0.056-3.201,0.395-3.074,0.751c0.128,0.352,1.72,0.641,3.53,0.641h0.518
	c1.821,0,3.41-0.348,3.534-0.772c0.127-0.426-1.251-0.725-3.078-0.671L236.514,48.525z"/>
<path fill="#E1DCD7" d="M247.527,48.564c-1.828,0.042-3.147,0.357-2.952,0.712c0.195,0.356,1.849,0.639,3.665,0.639h4.634
	c1.816,0,3.47-0.348,3.669-0.771c0.191-0.424-1.131-0.745-2.952-0.705L247.527,48.564z"/>
<path fill="#E1DCD7" d="M271.855,48.551c-1.821,0.044-3.167,0.369-3,0.724c0.171,0.356,1.797,0.642,3.615,0.642h2.908
	c1.819,0,3.446-0.348,3.612-0.772c0.167-0.424-1.18-0.739-3-0.695L271.855,48.551z"/>
<path fill="#E1DCD7" d="M286.341,48.535c-1.821,0.054-3.195,0.387-3.06,0.741c0.139,0.354,1.74,0.641,3.565,0.641h1.203
	c1.816,0,3.418-0.348,3.552-0.772c0.138-0.426-1.237-0.729-3.054-0.677L286.341,48.535z"/>
<path fill="#E1DCD7" d="M306.816,48.595c-1.818,0.02-3.002,0.325-2.623,0.68c0.379,0.356,2.176,0.642,3.992,0.642h14.904
	c1.82,0,3.617-0.348,3.996-0.774c0.379-0.424-0.801-0.757-2.615-0.735L306.816,48.595z"/>
<path fill="#E1DCD7" d="M341.572,48.595c-1.821,0.02-3,0.325-2.622,0.68c0.375,0.356,2.176,0.642,3.996,0.642h14.901
	c1.822,0,3.619-0.348,4-0.774c0.384-0.424-0.797-0.757-2.612-0.735L341.572,48.595z"/>
<path fill="#E1DCD7" d="M429.445,48.595c-1.816,0.02-2.996,0.325-2.609,0.68c0.374,0.356,2.171,0.642,3.996,0.642h14.885
	c1.822,0,3.621-0.348,4-0.774c0.38-0.424-0.799-0.757-2.613-0.735L429.445,48.595z"/>
<path fill="#E1DCD7" d="M397.19-9.954c-1.817,0.036-3.132,0.351-2.919,0.707c0.214,0.357,1.879,0.642,3.695,0.642h5.482
	c1.82,0,3.484-0.347,3.697-0.773c0.213-0.424-1.104-0.745-2.92-0.711L397.19-9.954z"/>
<path fill="#E1DCD7" d="M369.764-9.944c-1.813,0.032-3.1,0.34-2.858,0.697c0.249,0.357,1.937,0.642,3.759,0.642h7.184
	c1.824,0,3.508-0.347,3.755-0.771c0.241-0.426-1.046-0.747-2.866-0.721L369.764-9.944z"/>
<path fill="#E1DCD7" d="M355.855-9.97c-1.817,0.042-3.168,0.371-2.992,0.721c0.167,0.357,1.791,0.644,3.617,0.644h3.088
	c1.82,0,3.446-0.347,3.621-0.773c0.172-0.426-1.171-0.737-2.998-0.693L355.855-9.97z"/>
<path fill="#E1DCD7" d="M360.501,18.443c-1.821,0.034-3.126,0.349-2.905,0.703c0.214,0.356,1.885,0.639,3.699,0.639h5.823
	c1.816,0,3.483-0.345,3.705-0.767c0.224-0.426-1.088-0.745-2.908-0.713L360.501,18.443z"/>
<path fill="#E1DCD7" d="M275.719-11.894c-1.82,0.043-3.169,0.368-2.996,0.723c0.17,0.351,1.795,0.64,3.618,0.64h3.083
	c1.821,0,3.446-0.347,3.618-0.771c0.167-0.424-1.18-0.737-3.002-0.691L275.719-11.894z"/>
<path fill="#E1DCD7" d="M295.412-11.894c-1.82,0.043-3.167,0.368-2.996,0.723c0.168,0.351,1.801,0.64,3.616,0.64h3.098
	c1.816,0,3.442-0.347,3.615-0.771c0.163-0.424-1.178-0.737-3.004-0.691L295.412-11.894z"/>
<path fill="#E1DCD7" d="M282.803,0.606c-1.471,0.065-2.602,0.416-2.514,0.771c0.085,0.359,1.223,0.649,2.522,0.649
	c1.297,0,2.435-0.351,2.512-0.774C285.404,0.831,284.269,0.54,282.803,0.606"/>
<path fill="#E1DCD7" d="M289.816-3.447c-1.818,0.067-3.217,0.418-3.117,0.772c0.103,0.355,1.525,0.646,3.159,0.646
	c1.636,0,3.052-0.349,3.155-0.775c0.104-0.428-1.303-0.719-3.119-0.645L289.816-3.447z"/>
<path fill="#E1DCD7" d="M202.137-2.675c-1.821,0.066-3.224,0.415-3.12,0.771c0.1,0.355,1.522,0.646,3.158,0.646
	c1.635,0,3.056-0.349,3.169-0.773c0.107-0.426-1.299-0.719-3.111-0.649L202.137-2.675z"/>
<path fill="#E1DCD7" d="M224.152,17.815c-1.826,0.056-3.211,0.392-3.075,0.751c0.125,0.353,1.721,0.644,3.538,0.644h0.565
	c1.822,0,3.416-0.345,3.538-0.769c0.127-0.428-1.255-0.727-3.074-0.675L224.152,17.815z"/>
<path fill="#E1DCD7" d="M208.702,25.196c-1.816,0.041-3.147,0.356-2.95,0.709c0.197,0.356,1.843,0.644,3.668,0.644h4.51
	c1.816,0,3.468-0.351,3.661-0.775c0.195-0.428-1.132-0.743-2.948-0.703L208.702,25.196z"/>
<path fill="#E1DCD7" d="M427.314,26.74c-1.817,0.042-3.142,0.356-2.944,0.713c0.194,0.352,1.851,0.642,3.665,0.642h4.506
	c1.822,0,3.471-0.349,3.67-0.775c0.197-0.424-1.132-0.738-2.942-0.703L427.314,26.74z"/>
<path fill="#E1DCD7" d="M63.676,32.512c-1.818,0.048-3.188,0.383-3.044,0.733c0.149,0.351,1.757,0.64,3.574,0.64h1.771
	c1.818,0,3.431-0.347,3.58-0.771c0.149-0.424-1.213-0.729-3.035-0.681L63.676,32.512z"/>
<path fill="#E1DCD7" d="M32.769,26.33c-1.818,0.05-3.185,0.382-3.038,0.734c0.148,0.351,1.752,0.64,3.57,0.64h1.775
	c1.822,0,3.434-0.347,3.582-0.768c0.149-0.427-1.218-0.733-3.037-0.684L32.769,26.33z"/>
<path fill="#E1DCD7" d="M-11.27,25.748c-1.819,0.05-3.185,0.385-3.035,0.737c0.152,0.354,1.764,0.643,3.582,0.643h1.771
	c1.818,0,3.43-0.349,3.578-0.777c0.152-0.425-1.218-0.731-3.037-0.684L-11.27,25.748z"/>
<path fill="#E1DCD7" d="M-77.886,2.192c-1.818,0.034-3.144,0.345-2.943,0.699c0.203,0.356,1.854,0.651,3.675,0.66l4.851,0.018
	c1.818,0.008,3.476-0.336,3.676-0.761c0.205-0.426-1.114-0.749-2.933-0.719L-77.886,2.192z"/>
<path fill="#E1DCD7" d="M47.155-9.004c-1.807-0.199-3.21-0.056-3.111,0.315c0.098,0.375,1.654,0.878,3.455,1.122l1.761,0.237
	c1.803,0.247,3.445,0.12,3.646-0.279c0.202-0.4-1.107-0.891-2.919-1.088L47.155-9.004z"/>
<path fill="#E1DCD7" d="M236.707,29.997c-1.821,0.048-3.191,0.381-3.04,0.733c0.147,0.352,1.761,0.639,3.573,0.639h1.773
	c1.818,0,3.426-0.347,3.577-0.77c0.143-0.424-1.219-0.73-3.044-0.682L236.707,29.997z"/>
<path fill="#E1DCD7" d="M292.324,24.595c-1.818,0.048-3.185,0.378-3.033,0.733c0.149,0.351,1.759,0.639,3.575,0.639h1.773
	c1.82,0,3.426-0.349,3.575-0.772c0.146-0.429-1.217-0.729-3.033-0.682L292.324,24.595z"/>
<path fill="#E1DCD7" d="M158.674-10.5c-1.816,0.018-2.928,0.321-2.462,0.679c0.466,0.353,2.331,0.642,4.149,0.642h19.584
	c1.818,0,3.682-0.345,4.147-0.775c0.458-0.424-0.649-0.761-2.471-0.743L158.674-10.5z"/>
<path fill="#E1DCD7" d="M92.442-10.302c-1.816,0.016-2.918,0.319-2.437,0.671c0.48,0.356,2.363,0.642,4.179,0.642h20.422
	c1.818,0,3.696-0.345,4.176-0.773c0.479-0.424-0.623-0.759-2.44-0.741L92.442-10.302z"/>
<path fill="#E1DCD7" d="M88.97,17.867c-1.82,0.028-3.097,0.341-2.838,0.697c0.257,0.357,1.959,0.647,3.778,0.647h8.111
	c1.816,0,3.517-0.347,3.774-0.771c0.257-0.424-1.02-0.749-2.838-0.721L88.97,17.867z"/>
<path fill="#E1DCD7" d="M106.73,17.865c-1.818,0.028-3.107,0.343-2.86,0.699c0.246,0.357,1.933,0.647,3.753,0.647h7.25
	c1.815,0,3.504-0.345,3.751-0.769c0.247-0.429-1.043-0.753-2.86-0.721L106.73,17.865z"/>
<path fill="#E1DCD7" d="M144.782,44.845c-1.818,0.062-3.208,0.406-3.091,0.757c0.115,0.353,1.699,0.644,3.518,0.644h0.056
	c1.816,0,3.402-0.347,3.525-0.772c0.124-0.427-1.267-0.722-3.087-0.662L144.782,44.845z"/>
<path fill="#E1DCD7" d="M139.554-0.426c-1.807-0.209-3.186-0.067-3.06,0.303c0.127,0.383,1.701,0.891,3.503,1.14l3.323,0.464
	c1.803,0.243,3.466,0.125,3.698-0.275c0.232-0.398-1.053-0.893-2.861-1.104L139.554-0.426z"/>
<path fill="#E1DCD7" d="M305.632,30.093c-1.81-0.209-3.184-0.074-3.052,0.299c0.115,0.376,1.705,0.887,3.506,1.138l3.311,0.46
	c1.805,0.245,3.466,0.127,3.699-0.272c0.233-0.394-1.054-0.89-2.858-1.098L305.632,30.093z"/>
<path fill="#E1DCD7" d="M299.615,0.606c-1.362,0.065-2.416,0.416-2.336,0.771c0.075,0.359,1.125,0.649,2.332,0.649
	c1.211,0,2.26-0.351,2.337-0.774C302.025,0.831,300.979,0.54,299.615,0.606"/>
<path fill="#E1DCD7" d="M378.074,18.447c-1.82,0.034-3.109,0.342-2.868,0.697c0.247,0.356,1.933,0.645,3.753,0.645h7.195
	c1.814,0,3.51-0.349,3.749-0.773c0.239-0.424-1.048-0.743-2.87-0.719L378.074,18.447z"/>
<path fill="#E1DCD7" d="M441.796-9.966c-1.816,0.04-3.163,0.364-2.985,0.719c0.177,0.357,1.811,0.642,3.627,0.642h3.307
	c1.825,0,3.459-0.345,3.63-0.773c0.179-0.424-1.163-0.735-2.984-0.695L441.796-9.966z"/>
<path fill="#E1DCD7" d="M155.98,48.591c-1.816,0.023-3.029,0.331-2.701,0.686c0.339,0.354,2.1,0.639,3.919,0.639h12.388
	c1.819,0,3.578-0.346,3.917-0.771c0.335-0.424-0.881-0.753-2.695-0.729L155.98,48.591z"/>
<path fill="#E1DCD7" d="M74.871,48.598c-1.82,0.018-2.945,0.318-2.507,0.674c0.441,0.356,2.285,0.643,4.107,0.643h18.374
	c1.82,0,3.67-0.348,4.11-0.776c0.441-0.425-0.689-0.759-2.507-0.739L74.871,48.598z"/>
<path fill="#E1DCD7" d="M104.999,48.575c-1.814,0.033-3.106,0.347-2.865,0.701c0.243,0.354,1.927,0.639,3.745,0.639h7.076
	c1.818,0,3.501-0.348,3.748-0.772c0.236-0.424-1.055-0.745-2.873-0.719L104.999,48.575z"/>
<path fill="#E1DCD7" d="M-38.355,48.746c-1.818,0.042-3.175,0.368-3.003,0.722c0.167,0.357,1.789,0.643,3.613,0.643h2.974
	c1.818,0,3.443-0.347,3.611-0.773c0.171-0.427-1.177-0.735-2.994-0.695L-38.355,48.746z"/>
</svg>
